<svg width="135" height="57" viewBox="0 0 135 57" fill="none" xmlns="http://www.w3.org/2000/svg">
<path fill-rule="evenodd" clip-rule="evenodd" d="M2.42241 1.07918C2.42241 1.19456 2.37874 1.21461 2.12779 1.21461C1.87684 1.21461 1.83317 1.23465 1.83317 1.35004C1.83317 1.46292 1.7895 1.48547 1.57129 1.48547C1.35308 1.48547 1.30941 1.50801 1.30941 1.62089C1.30941 1.71116 1.26574 1.75632 1.17847 1.75632C1.0912 1.75632 1.04753 1.80149 1.04753 1.89175C1.04753 1.98202 1.00386 2.02718 0.916586 2.02718C0.831998 2.02718 0.785645 2.07235 0.785645 2.15469C0.785645 2.22532 0.72718 2.29804 0.654704 2.31768C0.554404 2.34476 0.523763 2.41004 0.523763 2.59639C0.523763 2.79459 0.499474 2.83976 0.392823 2.83976C0.276416 2.83976 0.261882 2.88492 0.261882 3.24605C0.261882 3.60717 0.247347 3.65233 0.130941 3.65233C0.000392825 3.65233 0 3.6975 0 20.0054C0 36.3133 0.000392825 36.3585 0.130941 36.3585C0.247347 36.3585 0.261882 36.4037 0.261882 36.7648C0.261882 37.1259 0.276416 37.1711 0.392823 37.1711C0.501962 37.1711 0.523763 37.2162 0.523763 37.4419C0.523763 37.6676 0.545565 37.7128 0.654704 37.7128C0.741976 37.7128 0.785645 37.758 0.785645 37.8482C0.785645 37.9385 0.829314 37.9837 0.916586 37.9837C1.00386 37.9837 1.04753 38.0288 1.04753 38.1191C1.04753 38.2093 1.0912 38.2545 1.17847 38.2545C1.26378 38.2545 1.30941 38.2997 1.30941 38.384C1.30941 38.4823 1.37252 38.5245 1.57129 38.5592C1.72272 38.5857 1.83317 38.6428 1.83317 38.6947C1.83317 38.7465 1.94362 38.8036 2.09505 38.8301C2.23909 38.8553 2.35694 38.9143 2.35694 38.9613C2.35694 39.0207 2.53979 39.0602 2.95625 39.0908C3.73155 39.1477 34.1983 39.1476 34.7812 39.0907C35.0889 39.0606 35.2231 39.0196 35.2231 38.9557C35.2231 38.9042 35.2914 38.8639 35.3786 38.8639C35.6993 38.8639 35.932 38.7803 35.9641 38.6536C35.9829 38.5793 36.0541 38.5254 36.1335 38.5254C36.2118 38.5254 36.2706 38.4818 36.2706 38.4238C36.2706 38.3674 36.3288 38.3222 36.4016 38.3222C36.4976 38.3222 36.5325 38.2771 36.5325 38.1529C36.5325 38.0288 36.5674 37.9837 36.6634 37.9837C36.7507 37.9837 36.7944 37.9385 36.7944 37.8482C36.7944 37.758 36.838 37.7128 36.9253 37.7128C37.0313 37.7128 37.0563 37.6676 37.0563 37.4758C37.0563 37.284 37.0812 37.2388 37.1872 37.2388C37.2988 37.2388 37.3181 37.1936 37.3181 36.9341C37.3181 36.6745 37.3375 36.6294 37.4491 36.6294C37.5797 36.6294 37.58 36.5842 37.58 20.0054C37.58 3.42664 37.5797 3.38148 37.4491 3.38148C37.3399 3.38148 37.3181 3.33631 37.3181 3.11062C37.3181 2.88492 37.2963 2.83976 37.1872 2.83976C37.0781 2.83976 37.0563 2.79459 37.0563 2.5689C37.0563 2.34321 37.0345 2.29804 36.9253 2.29804C36.838 2.29804 36.7944 2.25288 36.7944 2.16261C36.7944 2.07235 36.7507 2.02718 36.6634 2.02718C36.5762 2.02718 36.5325 1.98202 36.5325 1.89175C36.5325 1.80149 36.4888 1.75632 36.4016 1.75632C36.3143 1.75632 36.2706 1.71116 36.2706 1.62089C36.2706 1.52156 36.2269 1.48547 36.1069 1.48547C35.9869 1.48547 35.9433 1.44937 35.9433 1.35004C35.9433 1.23099 35.8996 1.21461 35.5832 1.21461C35.2668 1.21461 35.2231 1.19822 35.2231 1.07918C35.2231 0.944087 35.1794 0.943748 18.8227 0.943748C2.46607 0.943748 2.42241 0.944087 2.42241 1.07918ZM87.403 2.19647C87.403 2.28626 86.3897 2.29818 78.6791 2.29899C73.8809 2.29946 69.8888 2.31829 69.8078 2.3407L69.6605 2.38153V11.2782C69.6605 19.141 69.6719 20.1747 69.7587 20.1747C69.8133 20.1747 69.8569 20.2349 69.8569 20.3101C69.8569 20.4449 69.9006 20.4456 78.7282 20.4456H87.5994V18.6681V16.8905L81.0687 16.9111C77.4769 16.9224 74.3834 16.9126 74.1944 16.8893L73.8506 16.8469V14.8204V12.7938H80.3895C83.9858 12.7938 87.0204 12.7748 87.1329 12.7515L87.3375 12.7092V11.2279V9.74665H80.7516C74.2208 9.74665 74.1654 9.7455 74.1315 9.61122C74.1125 9.53626 74.0422 9.47579 73.9739 9.47579C73.8561 9.47579 73.8506 9.39081 73.8506 7.54593V5.61606H80.725H87.5994V3.85548C87.5994 2.33569 87.586 2.0949 87.5012 2.0949C87.4472 2.0949 87.403 2.1406 87.403 2.19647ZM95.8487 2.19647C95.8487 2.28077 95.7223 2.29804 95.104 2.29804C94.2482 2.29804 93.9501 2.34395 93.9501 2.47579C93.9501 2.54371 93.8509 2.5689 93.5838 2.5689C93.2727 2.5689 93.2125 2.58928 93.1834 2.70433C93.1566 2.81044 93.0941 2.83976 92.8949 2.83976C92.6843 2.83976 92.6406 2.86298 92.6406 2.97519C92.6406 3.08807 92.597 3.11062 92.3788 3.11062C92.1606 3.11062 92.1169 3.13317 92.1169 3.24605C92.1169 3.33631 92.0732 3.38148 91.9859 3.38148C91.8987 3.38148 91.855 3.42664 91.855 3.5169C91.855 3.60717 91.8113 3.65233 91.7241 3.65233C91.628 3.65233 91.5931 3.6975 91.5931 3.82162C91.5931 3.94574 91.5582 3.99091 91.4622 3.99091C91.3555 3.99091 91.3312 4.03607 91.3312 4.23427C91.3312 4.42062 91.3006 4.4859 91.2003 4.51299C91.0977 4.54075 91.0694 4.60535 91.0694 4.81141C91.0694 5.02918 91.0469 5.07434 90.9384 5.07434C90.8254 5.07434 90.8075 5.11951 90.8075 5.40445C90.8075 5.86741 90.7412 6.15777 90.6356 6.15777C90.56 6.15777 90.5456 6.99805 90.5456 11.4057C90.5456 15.8286 90.5598 16.6535 90.6361 16.6535C90.7513 16.6535 90.8054 16.8633 90.8066 17.3138C90.8073 17.6238 90.8242 17.6693 90.9384 17.6693C91.0476 17.6693 91.0694 17.7144 91.0694 17.9401C91.0694 18.1658 91.0912 18.211 91.2003 18.211C91.2963 18.211 91.3312 18.2561 91.3312 18.3803C91.3312 18.5044 91.3661 18.5496 91.4622 18.5496C91.5494 18.5496 91.5931 18.5947 91.5931 18.685C91.5931 18.7752 91.6368 18.8204 91.7241 18.8204C91.8113 18.8204 91.855 18.8656 91.855 18.9558C91.855 19.0461 91.8987 19.0913 91.9859 19.0913C92.0732 19.0913 92.1169 19.1364 92.1169 19.2267C92.1169 19.317 92.1606 19.3621 92.2478 19.3621C92.3198 19.3621 92.3788 19.4051 92.3788 19.4577C92.3788 19.5165 92.4797 19.571 92.6406 19.5991C92.8394 19.6339 92.9025 19.6761 92.9025 19.7744C92.9025 19.8872 92.9521 19.9038 93.2877 19.9038C93.6179 19.9038 93.6778 19.9232 93.7072 20.0393C93.7385 20.1634 93.7965 20.1747 94.4022 20.1747C94.9193 20.1747 95.063 20.195 95.063 20.2678C95.063 20.319 95.1551 20.3799 95.2676 20.4032C95.3802 20.4265 97.9314 20.4456 100.937 20.4456C106.347 20.4456 106.402 20.4442 106.436 20.3101C106.468 20.1847 106.525 20.1747 107.222 20.1747C107.918 20.1747 107.976 20.1647 108.007 20.0393C108.036 19.9246 108.097 19.9038 108.4 19.9038C108.699 19.9038 108.764 19.8822 108.792 19.7732C108.814 19.6838 108.905 19.6286 109.08 19.598C109.236 19.5708 109.336 19.5161 109.336 19.4577C109.336 19.4051 109.395 19.3621 109.467 19.3621C109.554 19.3621 109.597 19.317 109.597 19.2267C109.597 19.1364 109.641 19.0913 109.728 19.0913C109.816 19.0913 109.859 19.0461 109.859 18.9558C109.859 18.8656 109.903 18.8204 109.99 18.8204C110.086 18.8204 110.121 18.7752 110.121 18.6511C110.121 18.527 110.156 18.4818 110.252 18.4818C110.361 18.4818 110.383 18.4367 110.383 18.211C110.383 17.9853 110.405 17.9401 110.514 17.9401C110.63 17.9401 110.645 17.895 110.645 17.5338C110.645 17.1727 110.66 17.1275 110.776 17.1275C110.903 17.1275 110.907 17.0824 110.907 15.6378V14.1481H108.779H106.651V14.6898C106.651 15.1043 106.63 15.2315 106.561 15.2315C106.468 15.2315 106.389 15.5132 106.389 15.8494C106.389 15.9989 106.359 16.0441 106.258 16.0441C106.171 16.0441 106.128 16.0893 106.128 16.1795C106.128 16.2924 106.084 16.315 105.866 16.315C105.647 16.315 105.604 16.3375 105.604 16.4504C105.604 16.5673 105.56 16.5858 105.285 16.5858C104.837 16.5858 104.556 16.6544 104.556 16.7636C104.556 16.8415 103.932 16.8567 100.726 16.8567C96.9399 16.8567 96.8962 16.8551 96.8962 16.7213C96.8962 16.5971 96.8526 16.5858 96.3725 16.5858C95.8924 16.5858 95.8487 16.5745 95.8487 16.4504C95.8487 16.3511 95.805 16.315 95.685 16.315C95.565 16.315 95.5213 16.2789 95.5213 16.1795C95.5213 16.0893 95.4777 16.0441 95.3904 16.0441C95.3058 16.0441 95.2595 15.9989 95.2595 15.9166C95.2595 15.846 95.201 15.7733 95.1285 15.7536C95.0502 15.7324 94.9976 15.6613 94.9976 15.5765C94.9976 15.4985 94.9576 15.4347 94.9087 15.4347C94.7609 15.4347 94.7357 14.8029 94.7357 11.1009C94.7357 7.2081 94.7551 6.79544 94.9409 6.7452C95.0111 6.72624 95.063 6.65182 95.063 6.57043C95.063 6.48951 95.1052 6.42863 95.1613 6.42863C95.2158 6.42863 95.2595 6.36844 95.2595 6.2932C95.2595 6.18032 95.3031 6.15777 95.5213 6.15777C95.7396 6.15777 95.7832 6.13523 95.7832 6.02235C95.7832 5.88814 95.8269 5.88692 100.563 5.88692C105.298 5.88692 105.342 5.88814 105.342 6.02235C105.342 6.13523 105.386 6.15777 105.604 6.15777C105.822 6.15777 105.866 6.18032 105.866 6.2932C105.866 6.38347 105.909 6.42863 105.997 6.42863C106.084 6.42863 106.128 6.4738 106.128 6.56406C106.128 6.65433 106.171 6.69949 106.258 6.69949C106.359 6.69949 106.389 6.74466 106.389 6.89417C106.389 7.22672 106.467 7.51207 106.558 7.51207C106.619 7.51207 106.651 7.63883 106.665 7.93528L106.684 8.3585L108.795 8.37638L110.907 8.39425V7.27601C110.907 6.20294 110.902 6.15777 110.776 6.15777C110.66 6.15777 110.645 6.11261 110.645 5.75149C110.645 5.39037 110.63 5.3452 110.514 5.3452C110.403 5.3452 110.383 5.30003 110.383 5.04048C110.383 4.78093 110.364 4.73577 110.252 4.73577C110.146 4.73577 110.121 4.6906 110.121 4.49877C110.121 4.30693 110.096 4.26177 109.99 4.26177C109.901 4.26177 109.859 4.2166 109.859 4.11997C109.859 4.03519 109.807 3.96402 109.728 3.94283C109.656 3.92319 109.597 3.85047 109.597 3.77984C109.597 3.6975 109.551 3.65233 109.467 3.65233C109.379 3.65233 109.336 3.60717 109.336 3.5169C109.336 3.42942 109.292 3.38148 109.212 3.38148C109.144 3.38148 109.074 3.32101 109.055 3.24605C109.029 3.14339 108.965 3.11062 108.793 3.11062C108.62 3.11062 108.557 3.07784 108.531 2.97519C108.505 2.87145 108.442 2.83976 108.261 2.83976C108.105 2.83976 108.026 2.80841 108.026 2.74665C108.026 2.64989 107.754 2.5689 107.429 2.5689C107.313 2.5689 107.241 2.53321 107.241 2.47579C107.241 2.34395 106.942 2.29804 106.087 2.29804C105.468 2.29804 105.342 2.28077 105.342 2.19647C105.342 2.10709 104.771 2.0949 100.595 2.0949C96.4197 2.0949 95.8487 2.10709 95.8487 2.19647ZM128.649 5.65032V9.20575L123.232 9.18841L117.814 9.17108L117.797 5.73361L117.78 2.29615L115.669 2.31402L113.558 2.3319L113.539 11.1009C113.529 15.9239 113.538 19.9995 113.56 20.1578L113.599 20.4456H115.69H117.781V16.6197V12.7938H123.215H128.649V16.6206V20.4475L130.761 20.4296L132.872 20.4117L132.889 11.3549L132.905 2.29804H130.908C129.177 2.29804 128.911 2.28457 128.911 2.19647C128.911 2.14006 128.853 2.0949 128.78 2.0949C128.651 2.0949 128.649 2.14006 128.649 5.65032ZM48.71 4.09248V5.88692H52.4091H56.1082V13.1662V20.4456H58.105H60.1018V13.1662V5.88692H63.8009C67.4563 5.88692 67.5 5.88529 67.5 5.75149C67.5 5.66122 67.5437 5.61606 67.6309 5.61606C67.7583 5.61606 67.7619 5.57089 67.7619 3.95705V2.29804H58.2359H48.71V4.09248ZM14.8618 7.10578C14.8618 7.18101 14.9055 7.24121 14.96 7.24121C15.0437 7.24121 15.0582 7.42553 15.0582 8.49393C15.0582 9.5154 15.0415 9.74665 14.9677 9.74665C14.9178 9.74665 14.8617 9.80759 14.8428 9.88208C14.8223 9.96313 14.7535 10.0175 14.6715 10.0175C14.5348 10.0175 14.5344 10.0238 14.5344 12.6245C14.5344 15.1864 14.5321 15.2315 14.4035 15.2315C14.3162 15.2315 14.2726 15.2767 14.2726 15.367C14.2726 15.496 14.2289 15.5024 13.356 15.5024C12.483 15.5024 12.4394 15.496 12.4394 15.367C12.4394 15.2767 12.3957 15.2315 12.3084 15.2315C12.1863 15.2315 12.1775 15.1864 12.1775 14.5589V13.8862L10.6442 13.8648C9.80099 13.853 9.09299 13.8247 9.07093 13.8018C9.04893 13.7789 9.01318 13.6057 8.99151 13.4169C8.95301 13.0805 8.94712 13.0727 8.69892 13.0293C8.35894 12.9699 7.92192 13.0502 7.92192 13.1722C7.92192 13.2505 7.73291 13.2678 6.87439 13.2678C5.87054 13.2678 5.82687 13.2622 5.82687 13.1324C5.82687 13.0421 5.7832 12.997 5.69593 12.997C5.56787 12.997 5.56499 12.9518 5.56499 10.9655C5.56499 8.97924 5.56787 8.93407 5.69593 8.93407C5.7832 8.93407 5.82687 8.88891 5.82687 8.79865C5.82687 8.70838 5.87054 8.66322 5.95781 8.66322C6.03055 8.66322 6.08875 8.70838 6.08875 8.76479C6.08875 8.85167 6.27789 8.86636 7.39816 8.86636C8.51842 8.86636 8.70757 8.85167 8.70757 8.76479C8.70757 8.70892 8.76446 8.66322 8.83392 8.66322C8.91517 8.66322 8.96781 8.60877 8.98123 8.51086C8.99472 8.41294 9.05482 8.35078 9.14949 8.33683C9.23054 8.32498 9.2968 8.27162 9.2968 8.21833C9.2968 8.13762 9.51423 8.1215 10.6062 8.1215H11.9156V7.68135C11.9156 7.28638 11.929 7.24121 12.0466 7.24121C12.1338 7.24121 12.1775 7.19604 12.1775 7.10578C12.1775 6.97475 12.2212 6.97035 13.5196 6.97035C14.8181 6.97035 14.8618 6.97475 14.8618 7.10578ZM25.9272 7.766C25.9292 8.35796 25.8512 8.32464 27.2352 8.32464C28.5435 8.32464 28.8725 8.35864 28.8725 8.49393C28.8725 8.63153 29.205 8.66322 30.6483 8.66322C31.8552 8.66322 32.015 8.67581 32.015 8.77115C32.015 8.83047 32.074 8.895 32.146 8.91444C32.2734 8.9489 32.2769 9.0068 32.2769 11.1009C32.2769 13.1951 32.2734 13.253 32.146 13.2874C32.074 13.3069 32.015 13.3714 32.015 13.4307C32.015 13.5261 31.8552 13.5387 30.6483 13.5387C29.114 13.5387 28.8984 13.5639 28.8516 13.7491C28.8247 13.8556 28.7573 13.8772 28.4531 13.8772C28.1711 13.8772 28.0868 13.9006 28.0868 13.9788C28.0868 14.0641 27.9427 14.0805 27.1866 14.0813C26.0461 14.0825 26.0124 14.0919 25.9579 14.4256L25.9148 14.6898H24.7421H23.5694V12.4978V10.3057L23.3158 10.2637C23.0964 10.2274 23.0567 10.1932 23.0212 10.0096C22.9679 9.73453 22.9679 7.9986 23.021 7.72368L23.062 7.51207H24.4941H25.9263L25.9272 7.766ZM19.6917 8.90929C20.0034 8.94301 20.0956 8.97938 20.1207 9.07858C20.139 9.15117 20.211 9.20493 20.2897 9.20493C20.3679 9.20493 20.4268 9.24854 20.4268 9.30651C20.4268 9.36237 20.471 9.40808 20.525 9.40808C20.581 9.40808 20.6232 9.46895 20.6232 9.54987C20.6232 9.63289 20.6755 9.70575 20.7495 9.72579C20.836 9.74916 20.8893 9.84314 20.9189 10.0241C20.9452 10.1855 20.9981 10.2884 21.0545 10.2884C21.129 10.2884 21.1469 10.4463 21.1469 11.1009C21.1469 11.8684 21.1397 11.9135 21.016 11.9135C20.92 11.9135 20.8851 11.9587 20.8851 12.0828C20.8851 12.1858 20.8477 12.2521 20.7898 12.2521C20.7332 12.2521 20.6775 12.3462 20.6524 12.4843C20.6151 12.6907 20.582 12.7214 20.3549 12.7611C20.162 12.7948 20.0994 12.8374 20.0994 12.9352C20.0994 13.0064 20.0552 13.0647 20.0012 13.0647C19.9472 13.0647 19.903 13.1104 19.903 13.1662C19.903 13.2372 19.9721 13.2678 20.1322 13.2678C20.3176 13.2678 20.3613 13.2936 20.3613 13.4032C20.3613 13.4935 20.405 13.5387 20.4922 13.5387C20.5815 13.5387 20.6232 13.5838 20.6232 13.6805C20.6232 13.7635 20.6755 13.8363 20.7495 13.8564C20.836 13.8797 20.8893 13.9737 20.9189 14.1547C20.9452 14.3161 20.9981 14.419 21.0545 14.419C21.129 14.419 21.1469 14.5769 21.1469 15.2315C21.1469 15.9989 21.1397 16.0441 21.016 16.0441C20.9069 16.0441 20.8851 16.0893 20.8851 16.315C20.8851 16.5407 20.8633 16.5858 20.7541 16.5858C20.6669 16.5858 20.6232 16.631 20.6232 16.7213C20.6232 16.8115 20.5795 16.8567 20.4922 16.8567C20.405 16.8567 20.3613 16.9019 20.3613 16.9921C20.3613 17.0673 20.3176 17.1275 20.2631 17.1275C20.1824 17.1275 20.1649 17.2479 20.1649 17.8047C20.1649 18.3614 20.1824 18.4818 20.2631 18.4818C20.3176 18.4818 20.3613 18.542 20.3613 18.6173C20.3613 18.7075 20.405 18.7527 20.4922 18.7527C20.5815 18.7527 20.6232 18.7979 20.6232 18.8945C20.6232 18.977 20.6754 19.0504 20.748 19.07C20.8274 19.0915 20.8879 19.1875 20.9146 19.3345C20.9376 19.4614 20.9954 19.5653 21.0431 19.5653C21.1296 19.5653 21.2103 19.8977 21.2117 20.2593C21.2122 20.3794 21.2473 20.4456 21.3106 20.4456C21.3944 20.4456 21.4088 20.6299 21.4088 21.6983C21.4088 22.7221 21.3922 22.951 21.3179 22.951C21.2664 22.951 21.2089 23.0505 21.1854 23.1806C21.1583 23.3299 21.0986 23.4223 21.0144 23.445C20.9433 23.4643 20.8851 23.525 20.8851 23.5801C20.8851 23.6351 20.8261 23.696 20.7541 23.7155C20.6821 23.7349 20.6232 23.7961 20.6232 23.8513C20.6232 23.9117 20.535 23.9688 20.4014 23.9947C20.1333 24.0467 20.1202 24.0996 20.1533 24.9994L20.1775 25.6596H20.4004C20.5795 25.6596 20.6232 25.6861 20.6232 25.795C20.6232 25.9079 20.6669 25.9304 20.8851 25.9304C21.1033 25.9304 21.1469 25.953 21.1469 26.0659C21.1469 26.1652 21.1906 26.2013 21.3106 26.2013C21.4306 26.2013 21.4743 26.2374 21.4743 26.3367C21.4743 26.427 21.518 26.4722 21.6052 26.4722C21.6925 26.4722 21.7362 26.5173 21.7362 26.6076C21.7362 26.6979 21.7798 26.743 21.8671 26.743C21.9544 26.743 21.9981 26.7882 21.9981 26.8785C21.9981 26.9529 22.0396 27.0139 22.0905 27.0139C22.1473 27.0139 22.2 27.1182 22.2272 27.2847C22.2608 27.4903 22.3016 27.5556 22.3966 27.5556C22.4984 27.5556 22.5218 27.6048 22.5218 27.8185C22.5218 28.0246 22.5502 28.0892 22.6528 28.117C22.7772 28.1506 22.7837 28.2093 22.7837 29.3013C22.7837 30.5427 22.7487 30.8736 22.6176 30.8736C22.5703 30.8736 22.5139 30.9925 22.4891 31.1445C22.4619 31.311 22.4092 31.4153 22.3524 31.4153C22.3015 31.4153 22.2599 31.4763 22.2599 31.5508C22.2599 31.639 22.2163 31.6862 22.1348 31.6862C22.0397 31.6862 21.9989 31.7515 21.9653 31.9571C21.9317 32.1626 21.891 32.2279 21.7959 32.2279C21.7169 32.2279 21.6707 32.275 21.6707 32.3554C21.6707 32.426 21.6122 32.4988 21.5398 32.5184C21.4138 32.5525 21.4088 32.6108 21.4088 34.0498V35.5459H19.0519H16.695L16.694 34.0731C16.6936 33.2631 16.6761 32.5346 16.6553 32.4542C16.6345 32.3739 16.5612 32.2929 16.4925 32.2744C16.4198 32.2547 16.3676 32.1813 16.3676 32.0988C16.3676 32.0179 16.3254 31.9571 16.2694 31.9571C16.2149 31.9571 16.1712 31.8969 16.1712 31.8216C16.1712 31.7334 16.1275 31.6862 16.046 31.6862C15.9515 31.6862 15.9102 31.6215 15.8777 31.422C15.8481 31.241 15.7947 31.147 15.7083 31.1236C15.6131 31.0978 15.582 31.0295 15.582 30.8461C15.582 30.6853 15.5516 30.6028 15.4923 30.6028C15.3768 30.6028 15.3217 30.2525 15.3208 29.5123C15.3198 28.6726 15.3874 28.0973 15.4874 28.0973C15.5333 28.0973 15.5902 27.9762 15.6147 27.8265C15.6403 27.6698 15.6955 27.5556 15.7456 27.5556C15.7958 27.5556 15.851 27.4414 15.8766 27.2847C15.9102 27.0792 15.951 27.0139 16.046 27.0139C16.1275 27.0139 16.1712 26.9667 16.1712 26.8785C16.1712 26.7882 16.2149 26.743 16.3021 26.743C16.3894 26.743 16.4331 26.6979 16.4331 26.6076C16.4331 26.5173 16.4767 26.4722 16.564 26.4722C16.6513 26.4722 16.695 26.427 16.695 26.3367C16.695 26.2465 16.7386 26.2013 16.8259 26.2013C16.9132 26.2013 16.9568 26.1561 16.9568 26.0659C16.9568 25.953 17.0005 25.9304 17.2187 25.9304C17.4369 25.9304 17.4806 25.9079 17.4806 25.795C17.4806 25.6821 17.5243 25.6596 17.7425 25.6596H18.0044V24.853V24.0464L17.7425 24.0006C17.5437 23.9658 17.4806 23.9237 17.4806 23.8253C17.4806 23.741 17.435 23.6959 17.3497 23.6959C17.2624 23.6959 17.2187 23.6507 17.2187 23.5604C17.2187 23.4702 17.1751 23.425 17.0878 23.425C16.9811 23.425 16.9568 23.3798 16.9568 23.1816C16.9568 22.9953 16.9262 22.93 16.8259 22.9029C16.7029 22.8696 16.695 22.8106 16.695 21.9274C16.695 21.1748 16.7129 20.9873 16.785 20.9873C16.8989 20.9873 16.9568 20.6904 16.9568 20.1064C16.9568 19.7057 16.9731 19.6444 17.0878 19.6133C17.1881 19.5863 17.2187 19.521 17.2187 19.3346C17.2187 19.1364 17.243 19.0913 17.3497 19.0913C17.4369 19.0913 17.4806 19.0461 17.4806 18.9558C17.4806 18.8771 17.5243 18.8204 17.585 18.8204C17.6423 18.8204 17.704 18.7623 17.7219 18.6912C17.7399 18.6202 17.8108 18.5468 17.8794 18.5283C17.9919 18.4979 18.0044 18.4265 18.0044 17.8111C18.0044 17.1727 17.9957 17.1275 17.8734 17.1275C17.7862 17.1275 17.7425 17.0824 17.7425 16.9921C17.7425 16.9019 17.6988 16.8567 17.6115 16.8567C17.5243 16.8567 17.4806 16.8115 17.4806 16.7213C17.4806 16.631 17.4369 16.5858 17.3497 16.5858C17.2405 16.5858 17.2187 16.5407 17.2187 16.315C17.2187 16.0893 17.1969 16.0441 17.0878 16.0441C16.9641 16.0441 16.9568 15.9989 16.9568 15.2315C16.9568 14.5769 16.9748 14.419 17.0493 14.419C17.1057 14.419 17.1586 14.3161 17.1849 14.1547C17.2145 13.9737 17.2678 13.8797 17.3543 13.8564C17.4283 13.8363 17.4806 13.7635 17.4806 13.6805C17.4806 13.5838 17.5223 13.5387 17.6115 13.5387C17.6988 13.5387 17.7425 13.4935 17.7425 13.4032C17.7425 13.2904 17.7862 13.2678 18.0044 13.2678C18.1935 13.2678 18.2662 13.2396 18.2662 13.1662C18.2662 13.1098 18.208 13.0647 18.1353 13.0647C18.05 13.0647 18.0044 13.0195 18.0044 12.9352C18.0044 12.8374 17.9418 12.7948 17.7489 12.7611C17.5218 12.7214 17.4887 12.6907 17.4513 12.4843C17.4263 12.3462 17.3706 12.2521 17.314 12.2521C17.256 12.2521 17.2187 12.1858 17.2187 12.0828C17.2187 11.9587 17.1838 11.9135 17.0878 11.9135C16.9641 11.9135 16.9568 11.8684 16.9568 11.1009C16.9568 10.4463 16.9748 10.2884 17.0493 10.2884C17.1061 10.2884 17.1588 10.184 17.186 10.0175C17.2196 9.81193 17.2604 9.74665 17.3554 9.74665C17.4453 9.74665 17.4806 9.69891 17.4806 9.57736C17.4806 9.45324 17.5155 9.40808 17.6115 9.40808C17.6843 9.40808 17.7425 9.36291 17.7425 9.30651C17.7425 9.2501 17.8007 9.20493 17.8734 9.20493C17.9595 9.20493 18.0044 9.15977 18.0044 9.07336C18.0044 8.96786 18.0594 8.93672 18.2826 8.91593C18.7939 8.86832 19.2909 8.86595 19.6917 8.90929ZM87.092 24.5588C86.6963 24.5755 86.5519 24.6058 86.5519 24.672C86.5519 24.7664 86.2765 24.847 85.9545 24.847C85.8099 24.847 85.7663 24.8784 85.7663 24.9824C85.7663 25.0953 85.7226 25.1179 85.5044 25.1179C85.2862 25.1179 85.2425 25.1404 85.2425 25.2533C85.2425 25.3436 85.1988 25.3887 85.1115 25.3887C85.0243 25.3887 84.9806 25.4339 84.9806 25.5242C84.9806 25.6116 84.9369 25.6596 84.8573 25.6596C84.789 25.6596 84.7187 25.7201 84.6997 25.795C84.6809 25.8695 84.6186 25.9304 84.5612 25.9304C84.5005 25.9304 84.4568 25.9871 84.4568 26.0659C84.4568 26.1561 84.4132 26.2013 84.3259 26.2013C84.2168 26.2013 84.195 26.2465 84.195 26.4722C84.195 26.6979 84.1732 26.743 84.064 26.743C83.9635 26.743 83.9331 26.7882 83.9331 26.9377C83.9331 27.2612 83.8561 27.5556 83.7715 27.5556C83.6603 27.5556 83.6062 29.0865 83.6062 32.2279C83.6062 35.3693 83.6603 36.9002 83.7715 36.9002C83.8561 36.9002 83.9331 37.1946 83.9331 37.5181C83.9331 37.6676 83.9635 37.7128 84.064 37.7128C84.1601 37.7128 84.195 37.758 84.195 37.8821C84.195 37.9851 84.2323 38.0514 84.2902 38.0514C84.3472 38.0514 84.4027 38.1465 84.4284 38.2884C84.4595 38.4599 84.5056 38.5254 84.595 38.5254C84.6726 38.5254 84.7187 38.573 84.7187 38.6533C84.7187 38.745 84.7814 38.7933 84.9407 38.8242C85.0851 38.8522 85.1744 38.914 85.1964 39.0011C85.2165 39.0805 85.2858 39.1348 85.3673 39.1348C85.4455 39.1348 85.5044 39.1784 85.5044 39.2364C85.5044 39.3031 85.5689 39.3379 85.6926 39.3379C86.008 39.3379 86.29 39.4178 86.29 39.5072C86.29 39.6242 86.5964 39.6765 87.2803 39.6765C87.7531 39.6765 87.8613 39.6954 87.8613 39.7781C87.8613 39.8673 88.3923 39.8797 92.2478 39.8797C96.1033 39.8797 96.6343 39.8673 96.6343 39.7781C96.6343 39.6954 96.7426 39.6765 97.2154 39.6765C97.9129 39.6765 98.2056 39.624 98.2056 39.4988C98.2056 39.4413 98.2778 39.4057 98.3939 39.4057C98.719 39.4057 98.9913 39.3247 98.9913 39.2279C98.9913 39.1767 99.0502 39.1348 99.1222 39.1348C99.2075 39.1348 99.2532 39.0896 99.2532 39.0053C99.2532 38.907 99.3163 38.8648 99.515 38.8301C99.7607 38.7872 99.7769 38.7701 99.7769 38.5533C99.7769 38.3726 99.8036 38.3222 99.8995 38.3222C99.9919 38.3222 100.032 38.2555 100.064 38.0514C100.091 37.8761 100.14 37.7805 100.203 37.7805C100.266 37.7805 100.301 37.7137 100.301 37.5943C100.303 37.2458 100.383 36.9002 100.463 36.9002C100.572 36.9002 100.628 35.3722 100.628 32.3633C100.628 29.2829 100.57 27.6233 100.463 27.6233C100.383 27.6233 100.303 27.2776 100.301 26.9292C100.301 26.7884 100.269 26.743 100.17 26.743C100.061 26.743 100.039 26.6979 100.039 26.4722C100.039 26.2465 100.017 26.2013 99.9079 26.2013C99.8118 26.2013 99.7769 26.1561 99.7769 26.032C99.7769 25.9267 99.7398 25.8627 99.6787 25.8627C99.6247 25.8627 99.5805 25.8142 99.5805 25.7548C99.5805 25.6955 99.5216 25.6309 99.4496 25.6115C99.3775 25.592 99.3186 25.5339 99.3186 25.4824C99.3186 25.4309 99.257 25.3887 99.1815 25.3887C99.1013 25.3887 99.0308 25.3346 99.0114 25.2581C98.9889 25.1687 98.898 25.1135 98.723 25.0829C98.567 25.0556 98.4675 25.001 98.4675 24.9426C98.4675 24.8824 98.3977 24.847 98.2793 24.847C97.9661 24.847 97.6819 24.7673 97.6819 24.6795C97.6819 24.6227 97.4803 24.5828 97.0435 24.5529C96.4131 24.5097 88.1381 24.5147 87.092 24.5588ZM50.805 24.6693C50.805 24.7205 50.713 24.7814 50.6005 24.8047C50.4879 24.828 50.1933 24.847 49.9457 24.847C49.5393 24.847 49.4956 24.8601 49.4956 24.9824C49.4956 25.0953 49.452 25.1179 49.2338 25.1179C49.0155 25.1179 48.9719 25.1404 48.9719 25.2533C48.9719 25.3526 48.9282 25.3887 48.8082 25.3887C48.7086 25.3887 48.6445 25.4273 48.6445 25.4873C48.6445 25.5458 48.5535 25.6034 48.42 25.6293C48.2205 25.668 48.1908 25.7022 48.1524 25.9371C48.1261 26.0984 48.0732 26.2013 48.0168 26.2013C47.9659 26.2013 47.9243 26.2622 47.9243 26.3367C47.9243 26.427 47.8807 26.4722 47.7934 26.4722C47.6928 26.4722 47.6625 26.5173 47.6625 26.6668C47.6625 27.0031 47.5842 27.2847 47.4906 27.2847C47.4167 27.2847 47.4006 27.5813 47.4006 28.9437C47.4006 30.5576 47.4041 30.6028 47.5315 30.6028C47.6407 30.6028 47.6625 30.6479 47.6625 30.8736C47.6625 31.0993 47.6843 31.1445 47.7934 31.1445C47.8807 31.1445 47.9243 31.1896 47.9243 31.2799C47.9243 31.3551 47.968 31.4153 48.0226 31.4153C48.0771 31.4153 48.1208 31.4755 48.1208 31.5508C48.1208 31.6501 48.1644 31.6862 48.2844 31.6862C48.4044 31.6862 48.4481 31.7223 48.4481 31.8216C48.4481 31.9119 48.4918 31.9571 48.5791 31.9571C48.6663 31.9571 48.71 32.0022 48.71 32.0925C48.71 32.2054 48.7537 32.2279 48.9719 32.2279C49.1901 32.2279 49.2338 32.2505 49.2338 32.3633C49.2338 32.4802 49.2774 32.4988 49.5529 32.4988C50.0005 32.4988 50.2813 32.5673 50.2813 32.6765C50.2813 32.7547 51.1173 32.7696 55.5107 32.7696C58.3869 32.7696 60.8322 32.7887 60.9448 32.8119C61.0573 32.8352 61.1494 32.8962 61.1494 32.9474C61.1494 33.016 61.2526 33.0405 61.5422 33.0405C61.8824 33.0405 61.935 33.0575 61.935 33.1672C61.935 33.2622 61.9989 33.3046 62.1892 33.3361C62.3683 33.3657 62.4534 33.4182 62.4776 33.514C62.4966 33.5888 62.5557 33.6499 62.609 33.6499C62.6681 33.6499 62.7229 33.7426 62.7491 33.8869C62.7748 34.0288 62.8303 34.1239 62.8873 34.1239C62.9672 34.1239 62.9825 34.3256 62.9825 35.3766C62.9825 36.4104 62.9664 36.6294 62.8901 36.6294C62.8333 36.6294 62.7806 36.7337 62.7534 36.9002C62.7198 37.1058 62.679 37.1711 62.584 37.1711C62.5024 37.1711 62.4588 37.2183 62.4588 37.3065C62.4588 37.3968 62.4151 37.4419 62.3278 37.4419C62.2406 37.4419 62.1969 37.4871 62.1969 37.5774C62.1969 37.6676 62.1532 37.7128 62.066 37.7128C61.9787 37.7128 61.935 37.758 61.935 37.8482C61.935 37.9522 61.8913 37.9837 61.7468 37.9837C61.4217 37.9837 61.1494 38.0646 61.1494 38.1614C61.1494 38.2396 60.3419 38.2545 56.1082 38.2545C51.8596 38.2545 51.0669 38.2397 51.0669 38.1609C51.0669 38.0506 50.8687 37.9859 50.5268 37.9846C50.3252 37.9838 50.2813 37.9594 50.2813 37.8482C50.2813 37.7395 50.2376 37.7128 50.0598 37.7128C49.8933 37.7128 49.8297 37.6791 49.804 37.5774C49.7835 37.4963 49.7147 37.4419 49.6327 37.4419C49.5393 37.4419 49.4956 37.3988 49.4956 37.3065C49.4956 37.2162 49.452 37.1711 49.3647 37.1711C49.2483 37.1711 49.2338 37.1259 49.2338 36.7648C49.2338 36.4037 49.2192 36.3585 49.1028 36.3585C48.9864 36.3585 48.9719 36.3133 48.9719 35.9522V35.5459H48.1862H47.4006V35.9522C47.4006 36.2518 47.4242 36.3585 47.4906 36.3585C47.5962 36.3585 47.6625 36.6489 47.6625 37.1118C47.6625 37.3968 47.6804 37.4419 47.7934 37.4419C47.9025 37.4419 47.9243 37.4871 47.9243 37.7128C47.9243 37.9385 47.9461 37.9837 48.0553 37.9837C48.1399 37.9837 48.1862 38.0288 48.1862 38.1112C48.1862 38.1818 48.2447 38.2545 48.3172 38.2741C48.3955 38.2953 48.4481 38.3665 48.4481 38.4513C48.4481 38.5479 48.4898 38.5931 48.5791 38.5931C48.6663 38.5931 48.71 38.6382 48.71 38.7285C48.71 38.8188 48.7537 38.8639 48.8409 38.8639C48.913 38.8639 48.9719 38.9069 48.9719 38.9596C48.9719 39.0183 49.0728 39.0728 49.2338 39.1009C49.3852 39.1274 49.4956 39.1845 49.4956 39.2364C49.4956 39.2882 49.6061 39.3453 49.7575 39.3718C49.9038 39.3973 50.0194 39.4559 50.0194 39.5043C50.0194 39.6109 50.3671 39.6748 50.9524 39.6758C51.3012 39.6764 51.3943 39.6979 51.3943 39.7781C51.3943 39.8675 51.9653 39.8797 56.1409 39.8797C60.3165 39.8797 60.8875 39.8675 60.8875 39.7781C60.8875 39.6976 60.9812 39.6765 61.3376 39.6765C61.9095 39.6765 62.1969 39.6171 62.1969 39.4988C62.1969 39.4413 62.269 39.4057 62.3851 39.4057C62.7375 39.4057 62.9702 39.3264 63.0034 39.1953C63.0212 39.1248 63.0827 39.0671 63.1401 39.0671C63.1975 39.0671 63.2444 39.0214 63.2444 38.9655C63.2444 38.9076 63.3033 38.8639 63.3815 38.8639C63.4613 38.8639 63.5322 38.81 63.5512 38.7347C63.5692 38.6637 63.6401 38.5904 63.7087 38.5718C63.7815 38.5522 63.8337 38.4788 63.8337 38.3963C63.8337 38.3183 63.8752 38.2545 63.9261 38.2545C63.9829 38.2545 64.0356 38.1502 64.0628 37.9837C64.0876 37.8316 64.1441 37.7128 64.1913 37.7128C64.2798 37.7128 64.3574 37.4242 64.3574 37.0949C64.3574 36.9766 64.3921 36.9002 64.4458 36.9002C64.5105 36.9002 64.5456 36.7339 64.5767 36.2804C64.6611 35.0521 64.5994 33.8531 64.4519 33.8531C64.4061 33.8531 64.3491 33.7316 64.3247 33.5822C64.2991 33.4256 64.2439 33.3113 64.1937 33.3113C64.1436 33.3113 64.0884 33.1971 64.0628 33.0405C64.0292 32.8349 63.9884 32.7696 63.8934 32.7696C63.8119 32.7696 63.7682 32.7224 63.7682 32.6342C63.7682 32.5439 63.7245 32.4988 63.6372 32.4988C63.55 32.4988 63.5063 32.4536 63.5063 32.3633C63.5063 32.2731 63.4626 32.2279 63.3754 32.2279C63.2881 32.2279 63.2444 32.1827 63.2444 32.0925C63.2444 31.9796 63.2008 31.9571 62.9825 31.9571C62.7643 31.9571 62.7207 31.9345 62.7207 31.8216C62.7207 31.7012 62.677 31.6862 62.3278 31.6862C61.9787 31.6862 61.935 31.6712 61.935 31.5508C61.935 31.4228 61.8913 31.4153 61.1494 31.4153C60.4074 31.4153 60.3637 31.4078 60.3637 31.2799C60.3637 31.1456 60.3201 31.1445 55.3491 31.1445C50.3896 31.1445 50.3341 31.143 50.3003 31.009C50.2713 30.8944 50.211 30.8736 49.9074 30.8736C49.6039 30.8736 49.5436 30.8528 49.5146 30.7382C49.4956 30.6632 49.4253 30.6028 49.357 30.6028C49.2692 30.6028 49.2338 30.5541 49.2338 30.4335C49.2338 30.3093 49.1989 30.2642 49.1028 30.2642C48.9828 30.2642 48.9719 30.219 48.9719 29.7225C48.9719 29.2259 48.9609 29.1807 48.8409 29.1807C48.7349 29.1807 48.71 29.1356 48.71 28.9437C48.71 28.7519 48.7349 28.7067 48.8409 28.7067C48.9636 28.7067 48.9719 28.6616 48.9719 27.9957C48.9719 27.3299 48.9802 27.2847 49.1028 27.2847C49.1901 27.2847 49.2338 27.2396 49.2338 27.1493C49.2338 27.059 49.2774 27.0139 49.3647 27.0139C49.452 27.0139 49.4956 26.9687 49.4956 26.8785C49.4956 26.7882 49.5393 26.743 49.6266 26.743C49.7139 26.743 49.7575 26.6979 49.7575 26.6076C49.7575 26.4947 49.8012 26.4722 50.0194 26.4722C50.2376 26.4722 50.2813 26.4496 50.2813 26.3367C50.2813 26.2024 50.325 26.2013 55.7153 26.2013C61.1057 26.2013 61.1494 26.2024 61.1494 26.3367C61.1494 26.4496 61.193 26.4722 61.4113 26.4722C61.6295 26.4722 61.6731 26.4947 61.6731 26.6076C61.6731 26.7205 61.7168 26.743 61.935 26.743C62.1532 26.743 62.1969 26.7656 62.1969 26.8785C62.1969 26.9657 62.2406 27.0139 62.3195 27.0139C62.4118 27.0139 62.4524 27.0806 62.4839 27.2847C62.5092 27.4484 62.5614 27.5556 62.6158 27.5556C62.6723 27.5556 62.7222 27.6691 62.75 27.8603C62.7788 28.0591 62.8269 28.165 62.8883 28.165C62.9589 28.165 62.9825 28.2586 62.9825 28.5375V28.9099H63.7682H64.5538V28.5375C64.5538 28.2657 64.5294 28.165 64.4634 28.165C64.3972 28.165 64.3605 28.0109 64.3266 27.5895C64.2937 27.1815 64.255 27.0139 64.1936 27.0139C64.1437 27.0139 64.0883 26.8994 64.0628 26.743C64.0292 26.5374 63.9884 26.4722 63.8934 26.4722C63.8119 26.4722 63.7682 26.425 63.7682 26.3367C63.7682 26.2615 63.7245 26.2013 63.67 26.2013C63.6154 26.2013 63.5718 26.1411 63.5718 26.0659C63.5718 25.9736 63.5281 25.9304 63.4347 25.9304C63.3527 25.9304 63.2839 25.8761 63.2634 25.795C63.2444 25.7201 63.1741 25.6596 63.1058 25.6596C63.0281 25.6596 62.9825 25.6118 62.9825 25.5301C62.9825 25.4318 62.9194 25.3896 62.7207 25.3549C62.5597 25.3268 62.4588 25.2723 62.4588 25.2135C62.4588 25.1489 62.3825 25.1179 62.2235 25.1179C62.0433 25.1179 61.9802 25.0862 61.954 24.9824C61.9274 24.8775 61.8647 24.847 61.6751 24.847C61.1334 24.847 60.6256 24.7605 60.6256 24.6681C60.6256 24.5915 59.8074 24.5762 55.7153 24.5762C51.5927 24.5762 50.805 24.5911 50.805 24.6693ZM66.1906 25.3887V26.2013H69.7587H73.3269V33.0405V39.8797H73.9816C74.537 39.8797 74.6363 39.8633 74.6363 39.7717C74.6363 39.7124 74.6952 39.6479 74.7672 39.6284C74.897 39.5933 74.8982 39.5361 74.8982 32.8971V26.2013H78.3681C81.7944 26.2013 81.838 26.1996 81.838 26.0659C81.838 25.9906 81.8817 25.9304 81.9362 25.9304C82.0158 25.9304 82.0344 25.8214 82.0344 25.3549C82.0344 24.8884 82.0158 24.7793 81.9362 24.7793C81.8822 24.7793 81.838 24.7336 81.838 24.6777C81.838 24.588 80.9251 24.5762 74.0143 24.5762H66.1906V25.3887ZM102.985 32.2279V39.8797H103.771H104.556V36.7309V33.5822H109.917C112.865 33.5822 115.369 33.6012 115.482 33.6245C115.594 33.6478 115.686 33.7088 115.686 33.76C115.686 33.8217 115.766 33.8531 115.922 33.8531C116.102 33.8531 116.165 33.8848 116.191 33.9885C116.21 34.0634 116.28 34.1239 116.349 34.1239C116.428 34.1239 116.472 34.1719 116.472 34.2593C116.472 34.3496 116.516 34.3948 116.603 34.3948C116.714 34.3948 116.734 34.4399 116.734 34.6995C116.734 34.959 116.753 35.0042 116.865 35.0042C116.993 35.0042 116.996 35.0494 116.996 37.4419V39.8797H117.683C118.251 39.8797 118.371 39.8619 118.371 39.7781C118.371 39.7222 118.415 39.6765 118.469 39.6765C118.554 39.6765 118.567 39.3868 118.567 37.4758C118.567 35.6537 118.551 35.2751 118.477 35.2751C118.372 35.2751 118.305 34.9851 118.305 34.5297C118.305 34.2644 118.282 34.2012 118.174 34.172C118.075 34.1452 118.043 34.0796 118.043 33.9011C118.043 33.7226 118.011 33.6572 117.912 33.6303C117.834 33.6091 117.781 33.5379 117.781 33.4531C117.781 33.3565 117.74 33.3113 117.65 33.3113C117.563 33.3113 117.519 33.2662 117.519 33.1759C117.519 33.0857 117.476 33.0405 117.388 33.0405C117.301 33.0405 117.258 32.9953 117.258 32.9051C117.258 32.7922 117.214 32.7696 116.996 32.7696C116.806 32.7696 116.734 32.7414 116.734 32.6681C116.734 32.6101 116.793 32.5665 116.871 32.5665C116.952 32.5665 117.022 32.5122 117.042 32.4327C117.064 32.3457 117.153 32.2839 117.297 32.2559C117.457 32.225 117.519 32.1767 117.519 32.085C117.519 32.0022 117.566 31.9571 117.65 31.9571C117.738 31.9571 117.781 31.9119 117.781 31.8216C117.781 31.7314 117.825 31.6862 117.912 31.6862C117.999 31.6862 118.043 31.641 118.043 31.5508C118.043 31.4605 118.087 31.4153 118.174 31.4153C118.284 31.4153 118.305 31.3702 118.305 31.1381C118.305 30.9179 118.332 30.8536 118.436 30.8255C118.533 30.7993 118.567 30.7332 118.567 30.5709C118.567 30.0416 118.653 29.5193 118.74 29.5193C118.806 29.5193 118.829 29.4047 118.829 29.0792C118.829 28.7536 118.806 28.639 118.74 28.639C118.65 28.639 118.567 28.1132 118.567 27.5456C118.567 27.3598 118.539 27.2847 118.47 27.2847C118.406 27.2847 118.357 27.1891 118.33 27.0139C118.307 26.861 118.252 26.743 118.204 26.743C118.157 26.743 118.101 26.6238 118.076 26.4722C118.042 26.2666 118.002 26.2013 117.906 26.2013C117.825 26.2013 117.781 26.1541 117.781 26.0659C117.781 25.9756 117.738 25.9304 117.65 25.9304C117.563 25.9304 117.519 25.8853 117.519 25.795C117.519 25.7048 117.476 25.6596 117.388 25.6596C117.301 25.6596 117.258 25.6144 117.258 25.5242C117.258 25.4113 117.214 25.3887 116.996 25.3887C116.777 25.3887 116.734 25.3662 116.734 25.2533C116.734 25.1493 116.69 25.1179 116.546 25.1179C116.22 25.1179 115.948 25.0369 115.948 24.9401C115.948 24.8743 115.857 24.8468 115.637 24.8464C115.078 24.8454 114.639 24.767 114.639 24.6683C114.639 24.5913 113.683 24.5762 108.812 24.5762H102.985V32.2279ZM121.251 32.2279V39.8797H127.735H134.218L134.2 39.084L134.182 38.2884L128.371 38.2711L122.561 38.2538V35.5541V32.8543L122.765 32.8119C122.878 32.7887 125.422 32.7696 128.42 32.7696H133.871L133.912 32.558C133.934 32.4416 133.952 32.1712 133.952 31.9571C133.952 31.7429 133.934 31.4725 133.912 31.3561L133.871 31.1445H128.42C125.423 31.1445 122.878 31.1254 122.765 31.1022L122.561 31.0598V28.6306V26.2013H128.387H134.214V25.3887V24.5762H127.733H121.251V32.2279ZM96.8962 26.0659C96.8962 26.1863 96.9399 26.2013 97.289 26.2013C97.6382 26.2013 97.6819 26.2163 97.6819 26.3367C97.6819 26.4496 97.7255 26.4722 97.9437 26.4722C98.162 26.4722 98.2056 26.4947 98.2056 26.6076C98.2056 26.6979 98.2493 26.743 98.3366 26.743C98.4238 26.743 98.4675 26.7882 98.4675 26.8785C98.4675 26.9687 98.5112 27.0139 98.5984 27.0139C98.7076 27.0139 98.7294 27.059 98.7294 27.2847C98.7294 27.5104 98.7512 27.5556 98.8603 27.5556C98.9794 27.5556 98.9913 27.6008 98.9913 28.055C98.9913 28.6789 99.0469 28.9776 99.1631 28.9776C99.2383 28.9776 99.2532 29.514 99.2532 32.22C99.2532 35.4055 99.2509 35.463 99.1222 35.4978C99.0022 35.5303 98.9913 35.5902 98.9913 36.2167C98.9913 36.8551 98.9826 36.9002 98.8603 36.9002C98.7512 36.9002 98.7294 36.9454 98.7294 37.1711C98.7294 37.3968 98.7076 37.4419 98.5984 37.4419C98.5131 37.4419 98.4675 37.4871 98.4675 37.5714C98.4675 37.6697 98.4044 37.7119 98.2056 37.7467C98.0446 37.7748 97.9437 37.8293 97.9437 37.888C97.9437 37.9482 97.874 37.9837 97.7555 37.9837C97.4304 37.9837 97.1581 38.0646 97.1581 38.1614C97.1581 38.2396 96.3567 38.2545 92.1573 38.2545C87.2114 38.2545 87.1561 38.253 87.1221 38.1191C87.0926 38.0023 87.0328 37.9837 86.689 37.9837C86.3337 37.9837 86.29 37.9688 86.29 37.8482C86.29 37.758 86.2463 37.7128 86.1591 37.7128C86.0718 37.7128 86.0281 37.6676 86.0281 37.5774C86.0281 37.4871 85.9845 37.4419 85.8972 37.4419C85.8099 37.4419 85.7663 37.3968 85.7663 37.3065C85.7663 37.2162 85.7226 37.1711 85.6353 37.1711C85.5262 37.1711 85.5044 37.1259 85.5044 36.9002C85.5044 36.6745 85.4826 36.6294 85.3734 36.6294C85.2568 36.6294 85.2425 36.5842 85.2425 36.2167C85.2425 35.8611 85.2244 35.7992 85.1115 35.7687C84.9827 35.7338 84.9806 35.6763 84.9806 32.2279C84.9806 28.7795 84.9827 28.722 85.1115 28.6871C85.2244 28.6566 85.2425 28.5947 85.2425 28.2391C85.2425 27.8716 85.2568 27.8265 85.3734 27.8265C85.4826 27.8265 85.5044 27.7813 85.5044 27.5556C85.5044 27.3299 85.5262 27.2847 85.6353 27.2847C85.7407 27.2847 85.7663 27.2396 85.7663 27.0537C85.7663 26.8369 85.7824 26.8198 86.0281 26.7769C86.2269 26.7421 86.29 26.7 86.29 26.6016C86.29 26.5173 86.3356 26.4722 86.421 26.4722C86.5082 26.4722 86.5519 26.427 86.5519 26.3367C86.5519 26.2126 86.5956 26.2013 87.0757 26.2013C87.5558 26.2013 87.5994 26.19 87.5994 26.0659C87.5994 25.9317 87.6431 25.9304 92.2478 25.9304C96.8526 25.9304 96.8962 25.9317 96.8962 26.0659ZM115.424 26.3367C115.424 26.4496 115.468 26.4722 115.686 26.4722C115.904 26.4722 115.948 26.4947 115.948 26.6076C115.948 26.7205 115.992 26.743 116.21 26.743C116.428 26.743 116.472 26.7656 116.472 26.8785C116.472 26.9687 116.516 27.0139 116.603 27.0139C116.699 27.0139 116.734 27.059 116.734 27.1832C116.734 27.3073 116.769 27.3525 116.865 27.3525C116.969 27.3525 116.996 27.3979 116.997 27.5725C116.998 27.8942 117.064 28.0973 117.167 28.0973C117.239 28.0973 117.258 28.2682 117.258 28.9437C117.258 29.6193 117.239 29.7902 117.167 29.7902C117.06 29.7902 116.998 29.9952 116.997 30.3488C116.996 30.5573 116.972 30.6028 116.865 30.6028C116.756 30.6028 116.734 30.6479 116.734 30.8736C116.734 31.0993 116.712 31.1445 116.603 31.1445C116.516 31.1445 116.472 31.1896 116.472 31.2799C116.472 31.3928 116.428 31.4153 116.21 31.4153C115.992 31.4153 115.948 31.4379 115.948 31.5508C115.948 31.6636 115.904 31.6862 115.686 31.6862C115.468 31.6862 115.424 31.7087 115.424 31.8216C115.424 31.956 115.381 31.9571 109.99 31.9571H104.556V29.0792V26.2013H109.99C115.381 26.2013 115.424 26.2024 115.424 26.3367ZM1.04753 44.7551C1.04753 44.8454 1.0912 44.8905 1.17847 44.8905C1.25121 44.8905 1.30941 44.9357 1.30941 44.9921C1.30941 45.0823 8.75123 45.0937 67.8928 45.0937C127.034 45.0937 134.476 45.0823 134.476 44.9921C134.476 44.9357 134.534 44.8905 134.607 44.8905C134.694 44.8905 134.738 44.8454 134.738 44.7551C134.738 44.6198 134.694 44.6197 67.8928 44.6197C1.09119 44.6197 1.04753 44.6198 1.04753 44.7551ZM68.4267 47.9186C68.3059 47.9424 68.2813 47.98 68.3112 48.0956C68.3322 48.1763 68.3497 48.2805 68.3502 48.3271C68.3507 48.3736 68.3915 48.4117 68.4409 48.4117C68.4948 48.4117 68.5472 48.5178 68.5718 48.6766C68.6099 48.923 68.6311 48.9447 68.8748 48.9873C69.0359 49.0154 69.1368 49.0699 69.1368 49.1287C69.1368 49.2077 69.3566 49.2243 70.4058 49.2243C71.6198 49.2243 71.6763 49.2184 71.7091 49.0889C71.7296 49.0078 71.7984 48.9534 71.8804 48.9534C71.9558 48.9534 72.0175 48.9112 72.0175 48.8598C72.0175 48.8082 72.0764 48.7501 72.1484 48.7306C72.2613 48.7001 72.2793 48.6383 72.2793 48.2826V47.87H71.7556H71.2318V48.132C71.2318 48.3821 71.2207 48.3959 70.9863 48.4359C70.8513 48.459 70.5935 48.4779 70.4134 48.4779C70.2334 48.4779 69.9756 48.459 69.8406 48.4359C69.6155 48.3975 69.5951 48.3756 69.5951 48.1738C69.5951 48.0026 69.5623 47.9444 69.4477 47.9126C69.2853 47.8676 68.6677 47.8712 68.4267 47.9186ZM0.832129 49.6983C0.810982 49.7821 0.742827 49.8337 0.65346 49.8337C0.515907 49.8337 0.510211 49.8561 0.534697 50.3041C0.548838 50.5628 0.583996 50.7989 0.612803 50.8288C0.641676 50.8588 1.17847 50.8929 1.80574 50.9046L2.94617 50.9259V53.2159V55.506L3.09348 55.5468C3.17446 55.5692 3.52807 55.588 3.87912 55.5885L4.51746 55.5895V53.2533V50.9171H5.69593H6.87439V50.24V49.5629H3.87041C0.921431 49.5629 0.865781 49.5654 0.832129 49.6983ZM7.70129 49.7152C7.67961 49.799 7.66141 51.155 7.66096 52.7285L7.66004 55.5895H10.5735H13.4869V55.0486V54.5078L11.2445 54.49L9.00218 54.4722V53.795V53.1179L11.1136 53.1L13.225 53.0821V52.5414V52.0006H11.0946H8.96414L8.9832 51.4516L9.00218 50.9025L11.1136 50.9132C13.2016 50.9236 13.225 50.9222 13.225 50.785C13.225 50.6915 13.2676 50.6463 13.356 50.6463C13.4735 50.6463 13.4869 50.6011 13.4869 50.2061C13.4869 49.8112 13.4735 49.766 13.356 49.766C13.2832 49.766 13.225 49.7208 13.225 49.6644C13.225 49.5758 12.8767 49.5629 10.4829 49.5629H7.74076L7.70129 49.7152ZM14.5344 49.8337C14.5344 50.0594 14.5562 50.1046 14.6654 50.1046C14.7526 50.1046 14.7963 50.1497 14.7963 50.24C14.7963 50.3303 14.84 50.3754 14.9273 50.3754C15.0145 50.3754 15.0582 50.4206 15.0582 50.5109C15.0582 50.6011 15.1019 50.6463 15.1891 50.6463C15.2764 50.6463 15.3201 50.6915 15.3201 50.7817C15.3201 50.872 15.3637 50.9171 15.451 50.9171C15.5383 50.9171 15.582 50.9623 15.582 51.0526C15.582 51.1428 15.6256 51.188 15.7129 51.188C15.8002 51.188 15.8438 51.2332 15.8438 51.3234C15.8438 51.4137 15.8875 51.4589 15.9748 51.4589C16.0621 51.4589 16.1057 51.504 16.1057 51.5943C16.1057 51.6825 16.1494 51.7297 16.2309 51.7297C16.326 51.7297 16.3668 51.795 16.4003 52.0006C16.4418 52.2547 16.4583 52.2714 16.668 52.2714C16.8839 52.2714 16.8914 52.2802 16.8914 52.5348C16.8914 52.7815 16.8771 52.8008 16.6647 52.8421C16.4714 52.8796 16.432 52.9197 16.3967 53.1141C16.3616 53.3077 16.3216 53.3487 16.1323 53.3855C15.9927 53.4126 15.9093 53.4679 15.9093 53.5336C15.9093 53.5913 15.8531 53.6536 15.7844 53.6722C15.7157 53.6907 15.6448 53.7641 15.6269 53.8351C15.6089 53.9062 15.5507 53.9643 15.4975 53.9643C15.4443 53.9643 15.3854 54.0252 15.3666 54.0997C15.3478 54.1742 15.2854 54.2352 15.228 54.2352C15.1706 54.2352 15.1237 54.2837 15.1237 54.3431C15.1237 54.4024 15.0675 54.4662 14.9989 54.4848C14.9194 54.5062 14.8589 54.6022 14.8323 54.7493C14.806 54.8938 14.7525 54.98 14.689 54.98C14.6332 54.98 14.5729 55.0381 14.555 55.1091C14.5342 55.1913 14.4414 55.2539 14.2993 55.2814C14.1358 55.3132 14.0761 55.3601 14.0761 55.4571C14.0761 55.5829 14.1279 55.5895 15.1237 55.5895C16.1275 55.5895 16.1712 55.5838 16.1712 55.454C16.1712 55.3753 16.2149 55.3186 16.2756 55.3186C16.3329 55.3186 16.3953 55.2577 16.4141 55.1832C16.4329 55.1087 16.4919 55.0477 16.545 55.0477C16.5983 55.0477 16.6565 54.9896 16.6744 54.9185C16.6923 54.8475 16.7632 54.7742 16.8319 54.7556C16.9047 54.736 16.9568 54.6626 16.9568 54.5801C16.9568 54.5021 16.9976 54.4383 17.0474 54.4383C17.0972 54.4383 17.1534 54.3774 17.1722 54.3029C17.191 54.2284 17.252 54.1674 17.3078 54.1674C17.3719 54.1674 17.425 54.0801 17.4522 53.9304C17.4833 53.7589 17.5294 53.6934 17.6188 53.6934C17.7071 53.6934 17.7425 53.645 17.7425 53.5242C17.7425 53.3718 17.7687 53.3549 18.0044 53.3549C18.2401 53.3549 18.2662 53.3718 18.2662 53.5242C18.2662 53.6483 18.3011 53.6934 18.3972 53.6934C18.4845 53.6934 18.5281 53.7386 18.5281 53.8289C18.5281 53.9191 18.5718 53.9643 18.6591 53.9643C18.7463 53.9643 18.79 54.0095 18.79 54.0997C18.79 54.19 18.8337 54.2352 18.921 54.2352C19.0269 54.2352 19.0519 54.2803 19.0519 54.4722C19.0519 54.664 19.0768 54.7092 19.1828 54.7092C19.2701 54.7092 19.3138 54.7543 19.3138 54.8446C19.3138 54.9349 19.3574 54.98 19.4447 54.98C19.532 54.98 19.5757 55.0252 19.5757 55.1155C19.5757 55.2057 19.6193 55.2509 19.7066 55.2509C19.803 55.2509 19.8375 55.2961 19.8375 55.4219V55.5928L20.9006 55.5742C21.8527 55.5576 21.966 55.5432 21.9857 55.4371C22.0011 55.3537 21.9657 55.3186 21.8658 55.3186C21.779 55.3186 21.7106 55.2661 21.6897 55.1832C21.6708 55.1087 21.6119 55.0477 21.5588 55.0477C21.5055 55.0477 21.4466 54.9868 21.4278 54.9123C21.409 54.8378 21.35 54.7769 21.2969 54.7769C21.2436 54.7769 21.1847 54.7159 21.1659 54.6415C21.1471 54.567 21.0882 54.506 21.035 54.506C20.9818 54.506 20.9228 54.4451 20.9041 54.3706C20.8852 54.2961 20.8263 54.2352 20.7731 54.2352C20.7199 54.2352 20.661 54.1742 20.6422 54.0997C20.6233 54.0252 20.5644 53.9643 20.5112 53.9643C20.458 53.9643 20.3998 53.9062 20.3819 53.8351C20.3639 53.7641 20.293 53.6907 20.2243 53.6722C20.1516 53.6525 20.0994 53.5791 20.0994 53.4967C20.0994 53.4 20.0577 53.3549 19.9685 53.3549C19.8812 53.3549 19.8375 53.3097 19.8375 53.2194C19.8375 53.1292 19.7939 53.084 19.7066 53.084C19.6346 53.084 19.5757 53.0418 19.5757 52.9904C19.5757 52.9388 19.5167 52.8807 19.4447 52.8612C19.3407 52.8331 19.3138 52.7689 19.3138 52.5487C19.3138 52.3166 19.3351 52.2714 19.4447 52.2714C19.532 52.2714 19.5757 52.2263 19.5757 52.136C19.5757 52.0457 19.6193 52.0006 19.7066 52.0006C19.7939 52.0006 19.8375 51.9554 19.8375 51.8652C19.8375 51.7749 19.8812 51.7297 19.9685 51.7297C20.0577 51.7297 20.0994 51.6846 20.0994 51.5879C20.0994 51.5055 20.1516 51.432 20.2243 51.4124C20.293 51.3939 20.3639 51.3205 20.3819 51.2495C20.3998 51.1784 20.4601 51.1203 20.5159 51.1203C20.5799 51.1203 20.6331 51.0329 20.6602 50.8833C20.6913 50.7118 20.7374 50.6463 20.8269 50.6463C20.9069 50.6463 20.9505 50.5985 20.9505 50.5109C20.9505 50.4206 20.9942 50.3754 21.0815 50.3754C21.1662 50.3754 21.2124 50.3303 21.2124 50.2475C21.2124 50.155 21.2757 50.1073 21.4416 50.0752C21.6509 50.0346 21.6707 50.0105 21.6707 49.7968V49.5629H20.7945C19.9733 49.5629 19.9161 49.5714 19.884 49.6983C19.8635 49.7793 19.7947 49.8337 19.7127 49.8337C19.6193 49.8337 19.5757 49.8768 19.5757 49.9691C19.5757 50.0594 19.532 50.1046 19.4447 50.1046C19.3574 50.1046 19.3138 50.1497 19.3138 50.24C19.3138 50.3148 19.2701 50.3754 19.2164 50.3754C19.1533 50.3754 19.1041 50.471 19.077 50.6463C19.0455 50.8504 19.0049 50.9171 18.9126 50.9171C18.8337 50.9171 18.79 50.9654 18.79 51.0526C18.79 51.1428 18.7463 51.188 18.6591 51.188C18.5718 51.188 18.5281 51.2332 18.5281 51.3234C18.5281 51.4137 18.4845 51.4589 18.3972 51.4589C18.3099 51.4589 18.2662 51.504 18.2662 51.5943C18.2662 51.7072 18.2226 51.7297 18.0044 51.7297C17.7862 51.7297 17.7425 51.7072 17.7425 51.5943C17.7425 51.504 17.6988 51.4589 17.6115 51.4589C17.5223 51.4589 17.4806 51.4137 17.4806 51.3171C17.4806 51.2328 17.4281 51.1611 17.3513 51.1403C17.2671 51.1176 17.2074 51.0252 17.1803 50.8758C17.1567 50.7458 17.0992 50.6463 17.0478 50.6463C16.9978 50.6463 16.9568 50.5853 16.9568 50.5109C16.9568 50.4206 16.9132 50.3754 16.8259 50.3754C16.7386 50.3754 16.695 50.3303 16.695 50.24C16.695 50.1497 16.6513 50.1046 16.564 50.1046C16.4767 50.1046 16.4331 50.0594 16.4331 49.9691C16.4331 49.8768 16.3894 49.8337 16.296 49.8337C16.214 49.8337 16.1452 49.7793 16.1247 49.6983C16.0929 49.5725 16.0354 49.5629 15.3124 49.5629H14.5344V49.8337ZM22.7837 49.6708C22.7837 49.7301 22.7248 49.7946 22.6528 49.8141C22.5244 49.8488 22.5218 49.9064 22.5218 52.7195V55.5895H23.1765H23.8312V54.5139C23.8312 53.4953 23.8382 53.4365 23.9622 53.403C24.0405 53.3818 24.0931 53.3106 24.0931 53.2258C24.0931 53.0856 24.1115 53.084 25.7879 53.084H27.4827L27.5283 53.3985C27.5534 53.5715 27.5653 54.1276 27.5547 54.6343L27.5356 55.5556L28.204 55.5749L28.8725 55.5942L28.8715 52.7309C28.8711 51.156 28.8529 49.799 28.8312 49.7152C28.7947 49.5746 28.7543 49.5629 28.3083 49.5629C27.9328 49.5629 27.8249 49.5845 27.8249 49.6597C27.8249 49.713 27.7595 49.7663 27.6794 49.7782C27.5366 49.7994 27.5342 49.8158 27.5539 50.6492C27.565 51.1163 27.5536 51.6115 27.5285 51.7496L27.483 52.0006H25.7881C24.1368 52.0006 24.0931 51.9971 24.0931 51.8652C24.0931 51.7749 24.0494 51.7297 23.9622 51.7297C23.8382 51.7297 23.8312 51.6846 23.8312 50.8833C23.8312 50.1761 23.8474 50.0369 23.9294 50.0369C23.9835 50.0369 24.0276 49.9911 24.0276 49.9353C24.0276 49.8794 23.9807 49.8337 23.9233 49.8337C23.8659 49.8337 23.8035 49.7728 23.7847 49.6983C23.7544 49.5783 23.6954 49.5629 23.2671 49.5629C22.8684 49.5629 22.7837 49.5817 22.7837 49.6708ZM31.8186 49.6644C31.8186 49.7392 31.7433 49.766 31.5336 49.766C31.3768 49.766 31.0675 49.7856 30.8462 49.8095C30.5128 49.8456 30.4437 49.8746 30.4437 49.9788C30.4437 50.0594 30.3967 50.1046 30.3128 50.1046C30.2255 50.1046 30.1819 50.1497 30.1819 50.24C30.1819 50.3303 30.1382 50.3754 30.0509 50.3754C29.9227 50.3754 29.92 50.4206 29.92 52.5762C29.92 54.4567 29.9339 54.7769 30.0152 54.7769C30.0719 54.7769 30.1275 54.871 30.1526 55.0091C30.19 55.2155 30.223 55.2461 30.4502 55.2859C30.643 55.3195 30.7056 55.3622 30.7056 55.46C30.7056 55.5853 30.7879 55.5895 33.2262 55.5895C35.6537 55.5895 35.7468 55.5847 35.7468 55.4615C35.7468 55.3693 35.81 55.3214 35.9735 55.2897C36.1682 55.2519 36.2061 55.2127 36.2427 55.0113C36.2734 54.8422 36.3196 54.7769 36.4088 54.7769C36.5274 54.7769 36.5325 54.6912 36.5325 52.7116C36.5325 50.6915 36.5296 50.6463 36.4016 50.6463C36.2929 50.6463 36.2706 50.6011 36.2706 50.3814C36.2706 50.1251 36.2621 50.115 36.0087 50.0707C35.8625 50.0452 35.7468 49.9866 35.7468 49.9382C35.7468 49.8403 35.4079 49.7678 34.9448 49.7667C34.7124 49.7662 34.6339 49.7403 34.6339 49.6644C34.6339 49.5773 34.4338 49.5629 33.2262 49.5629C32.0187 49.5629 31.8186 49.5773 31.8186 49.6644ZM38.1503 49.6983C38.1298 49.7793 38.061 49.8337 37.979 49.8337C37.8427 49.8337 37.8419 49.846 37.8419 52.0344C37.8419 54.19 37.8392 54.2352 37.711 54.2352C37.6382 54.2352 37.58 54.2803 37.58 54.3367C37.58 54.4101 37.5073 54.4383 37.3181 54.4383H37.0563V55.0139V55.5895L37.6946 55.5885C38.4159 55.5875 38.6275 55.5475 38.6275 55.4122C38.6275 55.3608 38.6865 55.3186 38.7585 55.3186C38.8477 55.3186 38.8894 55.2734 38.8894 55.1768C38.8894 55.0944 38.9416 55.0209 39.0141 55.0014C39.1181 54.9732 39.1463 54.8789 39.1846 54.4321C39.218 54.0416 39.2551 53.8966 39.3218 53.8966C39.3972 53.8966 39.4132 53.6366 39.4132 52.4069V50.9171H41.0172H42.6212V53.2533V55.5895H43.2759H43.9307V52.5762V49.5629H41.0576C38.2396 49.5629 38.1839 49.5654 38.1503 49.6983ZM46.8768 49.6644C46.8768 49.7404 46.7984 49.7661 46.5658 49.7666C45.9416 49.7678 45.5804 49.8427 45.5462 49.9779C45.5278 50.0507 45.456 50.1046 45.3772 50.1046C45.2837 50.1046 45.2401 50.1477 45.2401 50.24C45.2401 50.3145 45.1993 50.3754 45.1495 50.3754C45.0429 50.3754 44.9803 50.5805 44.9791 50.9341C44.9784 51.1143 44.9496 51.188 44.88 51.188C44.7958 51.188 44.7818 51.3874 44.7818 52.5762C44.7818 53.765 44.7958 53.9643 44.88 53.9643C44.9547 53.9643 44.9784 54.0494 44.9791 54.3198C44.9802 54.7767 45.0345 54.98 45.1556 54.98C45.2088 54.98 45.2676 55.0402 45.2861 55.1138C45.3079 55.1999 45.3969 55.2625 45.5359 55.2894C45.6715 55.3158 45.7639 55.3793 45.7844 55.4604C45.8158 55.5845 45.9131 55.5895 48.311 55.5895C50.7614 55.5895 50.805 55.5871 50.805 55.454C50.805 55.3617 50.8487 55.3186 50.9421 55.3186C51.0241 55.3186 51.0929 55.2642 51.1134 55.1832C51.1323 55.1087 51.1884 55.0477 51.2383 55.0477C51.288 55.0477 51.3288 54.984 51.3288 54.9059C51.3288 54.8212 51.3814 54.75 51.4598 54.7288C51.587 54.6943 51.5907 54.6364 51.5907 52.6698C51.5907 50.6915 51.5877 50.6463 51.4598 50.6463C51.3637 50.6463 51.3288 50.6011 51.3288 50.477C51.3288 50.378 51.2912 50.3077 51.2383 50.3077C51.1884 50.3077 51.1323 50.2468 51.1134 50.1723C51.0929 50.0912 51.0241 50.0369 50.9421 50.0369C50.8667 50.0369 50.805 49.9954 50.805 49.9447C50.805 49.846 50.366 49.7676 49.8066 49.7666C49.5741 49.7661 49.4956 49.7404 49.4956 49.6644C49.4956 49.5775 49.3065 49.5629 48.1862 49.5629C47.066 49.5629 46.8768 49.5775 46.8768 49.6644ZM52.7037 49.6644C52.7037 49.7208 52.6455 49.766 52.5727 49.766C52.4438 49.766 52.4418 49.8112 52.4418 52.6799V55.5937L53.2014 55.5747L53.961 55.5556L53.9512 53.2364L53.9415 50.9171H55.6795H57.4176V50.24V49.5629H55.0606C53.0092 49.5629 52.7037 49.576 52.7037 49.6644ZM58.506 49.7745C58.4835 49.8909 58.4651 51.2468 58.4651 52.7878V55.5895H59.6763C60.8438 55.5895 60.8875 55.5846 60.8875 55.454C60.8875 55.3638 60.9312 55.3186 61.0184 55.3186C61.1057 55.3186 61.1494 55.2734 61.1494 55.1832C61.1494 55.0929 61.193 55.0477 61.2803 55.0477C61.3764 55.0477 61.4113 55.0026 61.4113 54.8785C61.4113 54.7543 61.4461 54.7092 61.5422 54.7092C61.6482 54.7092 61.6731 54.664 61.6731 54.4722C61.6731 54.2803 61.6981 54.2352 61.8041 54.2352C61.9001 54.2352 61.935 54.19 61.935 54.0659C61.935 53.9418 61.9699 53.8966 62.066 53.8966C62.172 53.8966 62.1969 53.8514 62.1969 53.6596C62.1969 53.4678 62.2218 53.4226 62.3278 53.4226C62.4239 53.4226 62.4588 53.3774 62.4588 53.2533C62.4588 53.1292 62.4937 53.084 62.5897 53.084C62.677 53.084 62.7207 53.0388 62.7207 52.9486C62.7207 52.8604 62.7643 52.8132 62.8458 52.8132C62.9409 52.8132 62.9817 52.7479 63.0153 52.5423C63.0424 52.3758 63.0952 52.2714 63.152 52.2714C63.2029 52.2714 63.2444 52.2105 63.2444 52.136C63.2444 52.0457 63.2881 52.0006 63.3754 52.0006C63.4626 52.0006 63.5063 51.9554 63.5063 51.8652C63.5063 51.7769 63.55 51.7297 63.6315 51.7297C63.7265 51.7297 63.7673 51.6644 63.8009 51.4589C63.8345 51.2533 63.8753 51.188 63.9704 51.188C64.0519 51.188 64.0955 51.1408 64.0955 51.0526C64.0955 50.9429 64.1392 50.9171 64.3247 50.9171H64.5538V53.2557V55.5942L65.2249 55.5749L65.896 55.5556V52.6777V49.7999L65.7487 49.7782C65.6677 49.7663 65.6014 49.713 65.6014 49.6597C65.6014 49.5805 65.4404 49.5629 64.7175 49.5629C64.0077 49.5629 63.8337 49.5813 63.8337 49.6567C63.8337 49.7161 63.7253 49.7674 63.539 49.7963C63.3064 49.8324 63.2444 49.8696 63.2444 49.9733C63.2444 50.0594 63.1994 50.1046 63.1135 50.1046C63.0083 50.1046 62.9825 50.1497 62.9825 50.3336C62.9825 50.5058 62.95 50.5716 62.8516 50.5982C62.7732 50.6194 62.7207 50.6906 62.7207 50.7754C62.7207 50.872 62.679 50.9171 62.5897 50.9171C62.5024 50.9171 62.4588 50.9623 62.4588 51.0526C62.4588 51.1428 62.4151 51.188 62.3278 51.188C62.2187 51.188 62.1969 51.2332 62.1969 51.4589C62.1969 51.6846 62.1751 51.7297 62.066 51.7297C61.9787 51.7297 61.935 51.7749 61.935 51.8652C61.935 51.9554 61.8913 52.0006 61.8041 52.0006C61.7168 52.0006 61.6731 52.0457 61.6731 52.136C61.6731 52.2263 61.6295 52.2714 61.5422 52.2714C61.4331 52.2714 61.4113 52.3166 61.4113 52.5423C61.4113 52.768 61.3895 52.8132 61.2803 52.8132C61.193 52.8132 61.1494 52.8583 61.1494 52.9486C61.1494 53.0388 61.1057 53.084 61.0184 53.084C60.9312 53.084 60.8875 53.1292 60.8875 53.2194C60.8875 53.3097 60.8438 53.3549 60.7565 53.3549C60.6605 53.3549 60.6256 53.4 60.6256 53.5242C60.6256 53.6483 60.5907 53.6934 60.4947 53.6934C60.3887 53.6934 60.3637 53.7386 60.3637 53.9304C60.3637 54.1223 60.3388 54.1674 60.2328 54.1674C60.1455 54.1674 60.1018 54.2126 60.1018 54.3029C60.1018 54.3929 60.0582 54.4383 59.9718 54.4383C59.8448 54.4383 59.8413 54.3821 59.8244 52.1191L59.8072 49.7999L59.6599 49.7782C59.5789 49.7663 59.5126 49.713 59.5126 49.6597C59.5126 49.5845 59.4049 49.5629 59.0298 49.5629H58.5469L58.506 49.7745ZM66.9762 52.5762V55.5895H68.1609C69.2904 55.5895 69.3471 55.5832 69.3797 55.454C69.3985 55.3795 69.4547 55.3186 69.5045 55.3186C69.5543 55.3186 69.5951 55.2577 69.5951 55.1832C69.5951 55.0929 69.6387 55.0477 69.726 55.0477C69.8152 55.0477 69.8569 55.0026 69.8569 54.9059C69.8569 54.8235 69.9091 54.7501 69.9817 54.7304C70.0612 54.709 70.1217 54.6129 70.1484 54.4659C70.1732 54.329 70.2289 54.2352 70.2854 54.2352C70.3385 54.2352 70.3807 54.1723 70.3807 54.0934C70.3807 54.0091 70.4332 53.9374 70.51 53.9166C70.5933 53.8942 70.6538 53.8021 70.6798 53.6584C70.7053 53.5181 70.7667 53.4225 70.8451 53.4013C70.9178 53.3817 70.9699 53.3083 70.9699 53.2258C70.9699 53.1292 71.0116 53.084 71.1009 53.084C71.1881 53.084 71.2318 53.0388 71.2318 52.9486C71.2318 52.8734 71.2755 52.8132 71.33 52.8132C71.384 52.8132 71.4282 52.7646 71.4282 52.7052C71.4282 52.6459 71.4851 52.582 71.5545 52.5632C71.641 52.5398 71.6944 52.4458 71.724 52.2648C71.7565 52.0653 71.7977 52.0006 71.8923 52.0006C71.9738 52.0006 72.0175 51.9534 72.0175 51.8652C72.0175 51.7749 72.0611 51.7297 72.1484 51.7297C72.2444 51.7297 72.2793 51.6846 72.2793 51.5604C72.2793 51.4574 72.3167 51.3911 72.3746 51.3911C72.4316 51.3911 72.4871 51.296 72.5128 51.1541C72.5518 50.9389 72.5761 50.9171 72.7768 50.9171H72.9978L73.015 53.2364L73.0323 55.5556L73.7033 55.5749L74.3744 55.5942V52.6801C74.3744 49.8112 74.3724 49.766 74.2435 49.766C74.1707 49.766 74.1125 49.7208 74.1125 49.6644C74.1125 49.5784 73.9525 49.5629 73.065 49.5629C72.0611 49.5629 72.0175 49.5685 72.0175 49.6983C72.0175 49.7885 71.9738 49.8337 71.8865 49.8337C71.7992 49.8337 71.7556 49.8789 71.7556 49.9691C71.7556 50.0574 71.7119 50.1046 71.6304 50.1046C71.5353 50.1046 71.4946 50.1698 71.461 50.3754C71.4338 50.5419 71.3811 50.6463 71.3243 50.6463C71.2734 50.6463 71.2318 50.7072 71.2318 50.7817C71.2318 50.872 71.1881 50.9171 71.1009 50.9171C71.0136 50.9171 70.9699 50.9623 70.9699 51.0526C70.9699 51.1408 70.9263 51.188 70.8448 51.188C70.7497 51.188 70.7089 51.2533 70.6753 51.4589C70.6417 51.6644 70.6009 51.7297 70.5059 51.7297C70.4244 51.7297 70.3807 51.7769 70.3807 51.8652C70.3807 51.9554 70.337 52.0006 70.2498 52.0006C70.1625 52.0006 70.1188 52.0457 70.1188 52.136C70.1188 52.2105 70.0772 52.2714 70.0264 52.2714C69.9696 52.2714 69.9168 52.3758 69.8897 52.5423C69.8561 52.7479 69.8153 52.8132 69.7202 52.8132C69.6387 52.8132 69.5951 52.8604 69.5951 52.9486C69.5951 53.0388 69.5514 53.084 69.4641 53.084C69.3795 53.084 69.3332 53.1292 69.3332 53.2115C69.3332 53.2821 69.2747 53.3549 69.2022 53.3745C69.1019 53.4016 69.0713 53.4669 69.0713 53.6532C69.0713 53.8514 69.047 53.8966 68.9404 53.8966C68.8531 53.8966 68.8094 53.9418 68.8094 54.032C68.8094 54.1223 68.7657 54.1674 68.6785 54.1674C68.5912 54.1674 68.5475 54.2126 68.5475 54.3029C68.5475 54.3931 68.5039 54.4383 68.4166 54.4383C68.2882 54.4383 68.2856 54.3931 68.2856 52.1022C68.2856 49.8112 68.2831 49.766 68.1547 49.766C68.082 49.766 68.0238 49.7208 68.0238 49.6644C68.0238 49.5826 67.9219 49.5629 67.5 49.5629H66.9762V52.5762ZM75.4874 49.6708C75.4874 49.7301 75.4285 49.7946 75.3565 49.8141C75.2281 49.8488 75.2255 49.9064 75.2255 52.7195V55.5895H75.9769H76.7284L76.7462 54.3537L76.7641 53.1179L78.4827 53.0998L80.2013 53.0818V54.3356V55.5895H80.856H81.5107V52.5762V49.5629H81.0196C80.6268 49.5629 80.5286 49.5832 80.5286 49.6644C80.5286 49.7276 80.4668 49.766 80.3649 49.766H80.2013V50.8833V52.0006H78.4663H76.7313V50.9171C76.7313 49.971 76.7181 49.8337 76.627 49.8337C76.5696 49.8337 76.5072 49.7728 76.4884 49.6983C76.4581 49.5783 76.3991 49.5629 75.9708 49.5629C75.5721 49.5629 75.4874 49.5817 75.4874 49.6708ZM86.6174 49.6644C86.6174 49.7276 86.5556 49.766 86.4537 49.766H86.29V51.5943C86.29 53.3774 86.2868 53.4226 86.1591 53.4226C86.0499 53.4226 86.0281 53.4678 86.0281 53.6934C86.0281 53.9191 86.0063 53.9643 85.8972 53.9643C85.7912 53.9643 85.7663 54.0095 85.7663 54.2013C85.7663 54.4327 85.76 54.4383 85.5044 54.4383H85.2425V55.691V56.9437H85.799C86.3118 56.9437 86.3555 56.9331 86.3555 56.8083C86.3555 56.7331 86.3992 56.6729 86.4537 56.6729C86.5264 56.6729 86.5519 56.5939 86.5519 56.3682C86.5519 56.1425 86.5264 56.0635 86.4537 56.0635C86.3997 56.0635 86.3555 56.0177 86.3555 55.9619C86.3555 55.906 86.3997 55.8603 86.4537 55.8603C86.5082 55.8603 86.5519 55.8001 86.5519 55.7249C86.5519 55.592 86.5956 55.5895 88.9416 55.5895H91.3312V56.2666V56.9437H91.9859H92.6406V55.691V54.4383H92.3788H92.1169V52.1022C92.1169 49.8112 92.1143 49.766 91.9859 49.766C91.9132 49.766 91.855 49.7208 91.855 49.6644C91.855 49.5759 91.5204 49.5629 89.2362 49.5629C86.952 49.5629 86.6174 49.5759 86.6174 49.6644ZM95.2595 49.6644C95.2595 49.7386 95.1846 49.7662 94.9812 49.7667C94.5507 49.7679 94.2119 49.8427 94.2119 49.9366C94.2119 49.9834 94.1089 50.0417 93.9831 50.0662C93.7774 50.1061 93.75 50.1377 93.7129 50.3784C93.6817 50.5798 93.641 50.6463 93.5488 50.6463C93.4393 50.6463 93.4263 50.7038 93.4263 51.188V51.7297H94.0752H94.7242L94.7684 51.4589C94.802 51.2533 94.8428 51.188 94.9379 51.188C95.0194 51.188 95.063 51.1408 95.063 51.0526C95.063 50.9206 95.1067 50.9171 96.7653 50.9171C98.4238 50.9171 98.4675 50.9206 98.4675 51.0526C98.4675 51.1428 98.5112 51.188 98.5984 51.188C98.7149 51.188 98.7294 51.2332 98.7294 51.5943V52.0006H97.0272H95.3249V52.5423V53.084H97.0272H98.7294V53.5242C98.7294 53.9191 98.716 53.9643 98.5984 53.9643C98.5112 53.9643 98.4675 54.0095 98.4675 54.0997C98.4675 54.19 98.4238 54.2352 98.3366 54.2352C98.2638 54.2352 98.2056 54.2803 98.2056 54.3367C98.2056 54.4242 97.9883 54.4383 96.642 54.4383C95.1334 54.4383 95.0771 54.4336 95.0441 54.3029C95.0253 54.2284 94.9647 54.1674 94.9095 54.1674C94.8407 54.1674 94.8027 54.0874 94.7887 53.9135L94.7684 53.6596L94.0974 53.6403L93.4263 53.621L93.4272 54.1482C93.4282 54.7585 93.4724 54.98 93.593 54.98C93.6404 54.98 93.6885 55.0486 93.7 55.1324C93.7134 55.2303 93.7735 55.2925 93.8682 55.3064C93.9492 55.3183 94.0155 55.368 94.0155 55.417C94.0155 55.4659 94.0818 55.5243 94.1628 55.5468C94.2438 55.5692 95.4223 55.588 96.7816 55.5885C99.172 55.5895 99.2532 55.5852 99.2532 55.46C99.2532 55.3617 99.3163 55.3195 99.515 55.2847C99.7607 55.2418 99.7769 55.2247 99.7769 55.0079C99.7769 54.822 99.8025 54.7769 99.9079 54.7769C100.036 54.7769 100.039 54.7317 100.039 52.7116C100.039 50.978 100.024 50.6463 99.9464 50.6463C99.8895 50.6463 99.8368 50.5419 99.8097 50.3754C99.7761 50.1698 99.7353 50.1046 99.6402 50.1046C99.5619 50.1046 99.515 50.0575 99.515 49.9788C99.515 49.8746 99.446 49.8456 99.1126 49.8095C98.8913 49.7856 98.5967 49.766 98.4579 49.766C98.2773 49.766 98.2056 49.7372 98.2056 49.6644C98.2056 49.5771 97.9983 49.5629 96.7325 49.5629C95.4668 49.5629 95.2595 49.5771 95.2595 49.6644ZM101.676 49.6983C101.676 49.7885 101.632 49.8337 101.545 49.8337C101.416 49.8337 101.414 49.8789 101.414 52.0069C101.414 54.1232 101.41 54.1811 101.283 54.2155C101.211 54.235 101.152 54.2897 101.152 54.3369C101.152 54.387 101.028 54.4422 100.854 54.469L100.557 54.5152L100.576 55.0353L100.595 55.5556L101.152 55.5762C101.814 55.6007 102.134 55.5504 102.134 55.4218C102.134 55.3702 102.2 55.3183 102.281 55.3064C102.376 55.2925 102.436 55.2303 102.449 55.1324C102.461 55.0486 102.509 54.98 102.556 54.98C102.659 54.98 102.721 54.7704 102.722 54.4214C102.723 54.2528 102.753 54.1674 102.812 54.1674C102.94 54.1674 102.984 53.6679 102.984 52.1868L102.985 50.9171H104.556H106.128V53.2557V55.5942L106.799 55.5749L107.47 55.5556L107.489 52.847C107.499 51.3573 107.49 50.0089 107.469 49.8506L107.429 49.5629H104.552C101.719 49.5629 101.676 49.5649 101.676 49.6983ZM108.525 49.7745C108.503 49.8909 108.484 51.2468 108.484 52.7878V55.5895H109.172H109.859V53.2545V50.9194L111.578 50.9014L113.297 50.8833L113.316 50.353C113.333 49.8671 113.324 49.8196 113.201 49.7864C113.128 49.7665 113.067 49.708 113.067 49.6565C113.067 49.5786 112.689 49.5629 110.817 49.5629H108.566L108.525 49.7745ZM114.083 49.7644C114.035 49.9892 114.078 50.1046 114.211 50.1046C114.264 50.1046 114.318 50.2154 114.344 50.3754C114.378 50.581 114.418 50.6463 114.514 50.6463C114.595 50.6463 114.639 50.6935 114.639 50.7817C114.639 50.872 114.682 50.9171 114.77 50.9171C114.857 50.9171 114.901 50.9623 114.901 51.0526C114.901 51.1428 114.944 51.188 115.032 51.188C115.141 51.188 115.162 51.2332 115.162 51.4589C115.162 51.6846 115.184 51.7297 115.293 51.7297C115.381 51.7297 115.424 51.7749 115.424 51.8652C115.424 51.9554 115.468 52.0006 115.555 52.0006C115.643 52.0006 115.686 52.0457 115.686 52.136C115.686 52.2263 115.73 52.2714 115.817 52.2714C115.902 52.2714 115.948 52.3166 115.948 52.3989C115.948 52.4696 116.007 52.5423 116.079 52.5619C116.179 52.589 116.21 52.6543 116.21 52.8406C116.21 53.0388 116.234 53.084 116.341 53.084C116.428 53.084 116.472 53.1292 116.472 53.2194C116.472 53.3097 116.516 53.3549 116.603 53.3549C116.728 53.3549 116.734 53.4 116.734 54.4722V55.5895L117.372 55.5885C118.356 55.5871 118.305 55.6278 118.305 54.8367C118.305 54.287 118.288 54.1674 118.207 54.1674C118.138 54.1674 118.109 54.0959 118.109 53.9304C118.109 53.765 118.138 53.6934 118.207 53.6934C118.268 53.6934 118.305 53.6295 118.305 53.5242C118.305 53.4026 118.34 53.3549 118.43 53.3549C118.525 53.3549 118.566 53.2896 118.6 53.084C118.627 52.9175 118.68 52.8132 118.736 52.8132C118.787 52.8132 118.829 52.7646 118.829 52.7052C118.829 52.6459 118.888 52.5814 118.96 52.5619C119.032 52.5423 119.091 52.4696 119.091 52.3989C119.091 52.3186 119.137 52.2714 119.216 52.2714C119.311 52.2714 119.352 52.2062 119.385 52.0006C119.419 51.795 119.46 51.7297 119.555 51.7297C119.634 51.7297 119.68 51.6826 119.68 51.6022C119.68 51.5316 119.738 51.4589 119.811 51.4392C119.883 51.4198 119.942 51.3589 119.942 51.3038C119.942 51.2488 120.001 51.1879 120.073 51.1684C120.151 51.1472 120.204 51.076 120.204 50.9912C120.204 50.9123 120.246 50.8494 120.299 50.8494C120.356 50.8494 120.411 50.7543 120.437 50.6124C120.468 50.4409 120.514 50.3754 120.604 50.3754C120.684 50.3754 120.727 50.3276 120.727 50.24C120.727 50.1497 120.771 50.1046 120.858 50.1046C120.968 50.1046 120.989 50.0594 120.989 49.8337V49.5629H120.302C119.744 49.5629 119.614 49.5814 119.614 49.6614C119.614 49.7204 119.522 49.7777 119.385 49.8044C119.179 49.8443 119.151 49.8763 119.115 50.1122C119.084 50.3093 119.043 50.3754 118.951 50.3754C118.872 50.3754 118.829 50.4236 118.829 50.5109C118.829 50.6011 118.785 50.6463 118.698 50.6463C118.593 50.6463 118.567 50.6915 118.567 50.8754C118.567 51.0476 118.534 51.1133 118.436 51.1399C118.358 51.1611 118.305 51.2323 118.305 51.3171C118.305 51.4137 118.263 51.4589 118.174 51.4589C118.087 51.4589 118.043 51.504 118.043 51.5943C118.043 51.6846 117.999 51.7297 117.912 51.7297C117.803 51.7297 117.781 51.7749 117.781 52.0006V52.2714H117.519C117.301 52.2714 117.258 52.2489 117.258 52.136C117.258 52.0457 117.214 52.0006 117.127 52.0006C117.017 52.0006 116.996 51.9554 116.996 51.7297C116.996 51.504 116.974 51.4589 116.865 51.4589C116.777 51.4589 116.734 51.4137 116.734 51.3234C116.734 51.2332 116.69 51.188 116.603 51.188C116.507 51.188 116.472 51.1428 116.472 51.0187C116.472 50.8946 116.437 50.8494 116.341 50.8494C116.235 50.8494 116.21 50.8043 116.21 50.6124C116.21 50.4206 116.185 50.3754 116.079 50.3754C115.983 50.3754 115.948 50.3303 115.948 50.2061C115.948 50.082 115.913 50.0369 115.817 50.0369C115.73 50.0369 115.686 49.9917 115.686 49.9014C115.686 49.8021 115.643 49.766 115.523 49.766C115.421 49.766 115.359 49.7276 115.359 49.6644C115.359 49.5813 115.247 49.5629 114.742 49.5629H114.125L114.083 49.7644ZM121.251 49.7999C121.251 49.9917 121.276 50.0369 121.382 50.0369C121.478 50.0369 121.513 50.082 121.513 50.2061C121.513 50.3303 121.548 50.3754 121.644 50.3754C121.731 50.3754 121.775 50.4206 121.775 50.5109C121.775 50.6011 121.819 50.6463 121.906 50.6463C121.993 50.6463 122.037 50.6915 122.037 50.7817C122.037 50.872 122.081 50.9171 122.168 50.9171C122.274 50.9171 122.299 50.9623 122.299 51.1541C122.299 51.346 122.324 51.3911 122.43 51.3911C122.526 51.3911 122.561 51.4363 122.561 51.5604C122.561 51.6846 122.596 51.7297 122.692 51.7297C122.779 51.7297 122.823 51.7749 122.823 51.8652C122.823 51.9554 122.866 52.0006 122.953 52.0006C123.041 52.0006 123.084 52.0457 123.084 52.136C123.084 52.2263 123.128 52.2714 123.215 52.2714C123.324 52.2714 123.346 52.3166 123.346 52.5423C123.346 52.768 123.368 52.8132 123.477 52.8132C123.564 52.8132 123.608 52.8583 123.608 52.9486C123.608 53.0388 123.652 53.084 123.739 53.084C123.826 53.084 123.87 53.1292 123.87 53.2194C123.87 53.3097 123.914 53.3549 124.001 53.3549C124.127 53.3549 124.132 53.4 124.132 54.4722V55.5895H124.819H125.507V54.6076C125.507 53.8071 125.524 53.6257 125.599 53.6257C125.656 53.6257 125.709 53.5214 125.736 53.3549C125.77 53.1493 125.81 53.084 125.905 53.084C125.987 53.084 126.031 53.0368 126.031 52.9486C126.031 52.8583 126.074 52.8132 126.161 52.8132C126.249 52.8132 126.292 52.768 126.292 52.6777C126.292 52.6032 126.334 52.5423 126.385 52.5423C126.442 52.5423 126.494 52.438 126.522 52.2714C126.555 52.0659 126.596 52.0006 126.691 52.0006C126.773 52.0006 126.816 51.9534 126.816 51.8652C126.816 51.7749 126.86 51.7297 126.947 51.7297C127.034 51.7297 127.078 51.6846 127.078 51.5943C127.078 51.504 127.122 51.4589 127.209 51.4589C127.296 51.4589 127.34 51.4137 127.34 51.3234C127.34 51.2489 127.382 51.188 127.432 51.188C127.489 51.188 127.542 51.0837 127.569 50.9171C127.603 50.7116 127.643 50.6463 127.739 50.6463C127.82 50.6463 127.864 50.5991 127.864 50.5109C127.864 50.4206 127.907 50.3754 127.995 50.3754C128.079 50.3754 128.126 50.3303 128.126 50.2479C128.126 50.1773 128.184 50.1046 128.257 50.0849C128.357 50.0578 128.387 49.9926 128.387 49.8062V49.5629H127.602C126.927 49.5629 126.816 49.578 126.816 49.6708C126.816 49.7301 126.757 49.7946 126.685 49.8141C126.613 49.8337 126.554 49.9064 126.554 49.9771C126.554 50.0574 126.508 50.1046 126.429 50.1046C126.334 50.1046 126.293 50.1698 126.26 50.3754C126.233 50.5419 126.18 50.6463 126.123 50.6463C126.072 50.6463 126.031 50.6948 126.031 50.7542C126.031 50.8135 125.974 50.8775 125.904 50.8963C125.818 50.9197 125.764 51.0136 125.735 51.1946C125.702 51.3941 125.661 51.4589 125.567 51.4589C125.485 51.4589 125.441 51.5061 125.441 51.5943C125.441 51.6846 125.398 51.7297 125.31 51.7297C125.223 51.7297 125.179 51.7749 125.179 51.8652C125.179 51.9404 125.136 52.0006 125.081 52.0006C125.027 52.0006 124.983 52.0608 124.983 52.136C124.983 52.2353 124.939 52.2714 124.819 52.2714C124.699 52.2714 124.656 52.2353 124.656 52.136C124.656 52.0457 124.612 52.0006 124.525 52.0006C124.437 52.0006 124.394 51.9554 124.394 51.8652C124.394 51.7907 124.352 51.7297 124.301 51.7297C124.245 51.7297 124.192 51.6254 124.165 51.4589C124.131 51.2533 124.09 51.188 123.995 51.188C123.914 51.188 123.87 51.1408 123.87 51.0526C123.87 50.9623 123.826 50.9171 123.739 50.9171C123.643 50.9171 123.608 50.872 123.608 50.7479C123.608 50.6449 123.571 50.5786 123.513 50.5786C123.456 50.5786 123.4 50.4834 123.375 50.3416C123.344 50.1701 123.298 50.1046 123.208 50.1046C123.12 50.1046 123.084 50.0561 123.084 49.9353C123.084 49.8112 123.049 49.766 122.953 49.766C122.881 49.766 122.823 49.7208 122.823 49.6644C122.823 49.5798 122.692 49.5629 122.037 49.5629H121.251V49.7999ZM129.173 49.6644C129.173 49.7208 129.115 49.766 129.042 49.766C128.913 49.766 128.911 49.8112 128.911 52.6777V55.5895H129.564H130.217L130.235 54.76L130.253 53.9304L131.972 53.9124C133.39 53.8975 133.691 53.8778 133.691 53.7998C133.691 53.7424 133.793 53.6874 133.952 53.6596C134.151 53.6249 134.214 53.5827 134.214 53.4843C134.214 53.4 134.26 53.3549 134.345 53.3549C134.433 53.3549 134.476 53.3097 134.476 53.2194C134.476 53.1292 134.52 53.084 134.607 53.084C134.724 53.084 134.738 53.0388 134.738 52.6777C134.738 52.3166 134.753 52.2714 134.869 52.2714C134.989 52.2714 135 52.2263 135 51.7297C135 51.2332 134.989 51.188 134.869 51.188C134.753 51.188 134.738 51.1428 134.738 50.7817C134.738 50.4206 134.724 50.3754 134.607 50.3754C134.52 50.3754 134.476 50.3303 134.476 50.24C134.476 50.1497 134.433 50.1046 134.345 50.1046C134.261 50.1046 134.214 50.0594 134.214 49.9788C134.214 49.8746 134.145 49.8456 133.812 49.8095C133.591 49.7856 133.281 49.766 133.124 49.766C132.915 49.766 132.839 49.7392 132.839 49.6644C132.839 49.5765 132.592 49.5629 131.006 49.5629C129.42 49.5629 129.173 49.5765 129.173 49.6644ZM34.9612 51.0526C34.9612 51.1271 35.0017 51.188 35.0512 51.188C35.1884 51.188 35.2231 51.5057 35.2231 52.7603C35.2231 53.8523 35.2166 53.911 35.0921 53.9447C35.0197 53.9643 34.9612 54.037 34.9612 54.1077C34.9612 54.19 34.9149 54.2352 34.8303 54.2352C34.7575 54.2352 34.6993 54.2803 34.6993 54.3367C34.6993 54.4243 34.4774 54.4383 33.0953 54.4383C31.5349 54.4383 31.4913 54.4347 31.4913 54.3029C31.4913 54.2126 31.4476 54.1674 31.3603 54.1674C31.2334 54.1674 31.2294 54.1223 31.2294 52.6777C31.2294 51.2332 31.2334 51.188 31.3603 51.188C31.4476 51.188 31.4913 51.1428 31.4913 51.0526C31.4913 50.9205 31.5349 50.9171 33.2262 50.9171C34.9175 50.9171 34.9612 50.9205 34.9612 51.0526ZM50.0194 51.188C50.0194 51.4137 50.0412 51.4589 50.1503 51.4589C50.2764 51.4589 50.2813 51.504 50.2813 52.6698C50.2813 53.8239 50.2751 53.8824 50.1503 53.9162C50.072 53.9374 50.0194 54.0086 50.0194 54.0934C50.0194 54.19 49.9777 54.2352 49.8885 54.2352C49.8157 54.2352 49.7575 54.2803 49.7575 54.3367C49.7575 54.4242 49.5393 54.4383 48.1862 54.4383C46.8332 54.4383 46.6149 54.4242 46.6149 54.3367C46.6149 54.2809 46.5597 54.2352 46.4922 54.2352C46.315 54.2352 46.2876 54.0032 46.2876 52.5C46.2876 51.2332 46.2921 51.188 46.4185 51.188C46.5058 51.188 46.5495 51.1428 46.5495 51.0526C46.5495 50.9205 46.5931 50.9171 48.2844 50.9171H50.0194V51.188ZM90.5456 52.6777V54.4383H88.9416H87.3375L87.3385 54.2182C87.3398 53.8966 87.4057 53.6934 87.5089 53.6934C87.583 53.6934 87.5994 53.442 87.5994 52.3053V50.9171H89.0725H90.5456V52.6777ZM133.388 51.1288C133.41 51.2452 133.429 51.6064 133.429 51.9315V52.5227L132.987 52.5659C132.418 52.6215 130.691 52.6227 130.425 52.5677L130.221 52.5254V51.7213V50.9171H131.784H133.347L133.388 51.1288Z" fill="white"/>
</svg>
