<svg xmlns="http://www.w3.org/2000/svg" width="83" height="82" viewBox="0 0 83 82" fill="none">
<path d="M76.0824 0.0847626H7.30931C3.26933 0.0847626 0 3.37747 0 7.3941V74.6026C0.0233525 78.6426 3.29268 81.8886 7.30931 81.9119H76.1058C80.1458 81.9119 83.4151 78.6426 83.4384 74.6026V7.41746C83.4151 3.35412 80.1224 0.0847626 76.0824 0.0847626ZM33.2073 18.7434C33.2073 19.2105 32.8336 19.6075 32.3665 19.6075H32.1097V30.3963C32.1097 30.7466 31.8061 31.0502 31.4558 31.0502H27.626C27.2757 31.0502 26.9721 30.7466 26.9721 30.3963V27.8509H20.9238C20.1999 27.8509 19.5927 27.2437 19.5927 26.5198V26.0294H17.7946V26.0528C17.7946 26.3563 17.5611 26.5899 17.2575 26.6132H13.0073C12.7037 26.6132 12.4469 26.3797 12.4469 26.0761V26.0528V17.4824C12.4469 17.1788 12.6804 16.9219 12.984 16.9219H13.0073H19.6161C19.6394 16.198 20.2232 15.6375 20.9472 15.6142H26.5518V13.6759C26.5518 13.2089 26.9488 12.8352 27.4158 12.8352H32.3899C32.857 12.8352 33.2306 13.2089 33.2306 13.6759L33.2073 18.7434ZM50.3012 63.6269C49.8108 65.2382 48.8301 66.6861 47.499 67.7136V73.6919C47.499 73.9954 47.2421 74.2523 46.9385 74.2523H37.5742C37.2706 74.2523 37.0137 74.0188 36.9904 73.7152V67.737C33.3474 64.8413 32.7169 59.5402 35.6126 55.8739C36.6634 54.5428 38.1112 53.562 39.7226 53.0482V49.7322C39.2088 49.4987 38.7184 49.1717 38.2747 48.7981C37.1071 47.5137 36.6634 45.7389 37.0838 44.0575C37.1538 43.0534 37.2706 42.0259 37.4807 41.0451C37.6676 40.0642 38.1346 39.1769 38.8352 38.4763C39.0921 38.2194 39.3957 37.9859 39.6993 37.7991V34.6932C39.7226 34.6698 39.7226 34.6465 39.7459 34.6465C36.173 33.2687 34.3749 29.2754 35.7527 25.6791C37.1305 22.0828 41.1237 20.308 44.72 21.6858C48.293 23.0636 50.0911 27.0569 48.7133 30.6532C48.0127 32.4747 46.5882 33.9225 44.7667 34.6465L44.7434 34.6698V37.8458C45.0703 38.0326 45.3506 38.2661 45.6074 38.523C46.308 39.2236 46.7984 40.1343 46.9852 41.1151C47.1954 42.0959 47.3121 43.1001 47.3822 44.1276C47.8025 45.809 47.3355 47.6071 46.1679 48.8915C45.7242 49.2651 45.2338 49.5687 44.72 49.8022V53.1183C49.157 54.4961 51.6557 59.2133 50.2779 63.6503C50.3246 63.6036 50.3012 63.6269 50.3012 63.6269ZM71.7389 25.7492C71.7389 26.4731 71.1551 27.0569 70.4312 27.0569H64.5463C64.4529 27.6407 63.2853 28.0844 61.8841 28.0844H57.7974V28.7616C57.7974 29.182 57.4705 29.5089 57.0501 29.5089H52.7767C52.3563 29.5089 52.0294 29.182 52.0294 28.7616V19.7943H51.4456C51.0486 19.7943 50.6983 19.4673 50.6983 19.047V14.7735C50.6983 14.3531 51.0252 14.0262 51.4456 14.0262H56.6298C57.0268 14.0262 57.3771 14.3531 57.3771 14.7735V15.6842H61.8374C63.2385 15.6842 64.4062 16.1513 64.4996 16.7351H70.3844C71.1083 16.7351 71.6921 17.3189 71.6921 18.0428L71.7389 25.7492Z" fill="black"/>
</svg>